<svg fill="#ed760e" xmlns="http://www.w3.org/2000/svg" xmlns:xlink="http://www.w3.org/1999/xlink" version="1.1" x="0px" y="0px" viewBox="0 0 100 100" enable-background="new 0 0 100 100" xml:space="preserve"><g><path d="M24.279,44.392l46.978-20.291l-20.972-8.08L0.824,33.973L24.279,44.392z M48.495,20.742l7.893,3.174l-9.114,3.662   l-7.812-3.417L48.495,20.742z"></path><polygon points="25.791,65.236 35.661,69.961 47.234,57.794 25.791,48.27  "></polygon><polygon points="22.861,67.079 10.599,61.208 0.582,72.389 22.861,85.283  "></polygon><polygon points="0.051,39.515 0,68.65 8.608,59.038  "></polygon><polygon points="22.861,63.833 22.861,46.969 2.565,37.953 11.531,58.406  "></polygon><polygon points="51.669,58.396 51.669,100 100.169,71.927 100.109,36.877  "></polygon><polygon points="75.163,25.605 27.922,46.011 50.126,55.874 98.244,34.497  "></polygon><polygon points="48.583,60.627 37.791,71.973 48.583,95.438  "></polygon><polygon points="25.791,86.979 47.157,99.346 34.984,72.885 25.791,68.482  "></polygon></g></svg>
