<?xml version="1.0" encoding="UTF-8" standalone="no"?>
<svg fill="#d13505"
   xmlns:dc="http://purl.org/dc/elements/1.1/"
   xmlns:cc="http://creativecommons.org/ns#"
   xmlns:rdf="http://www.w3.org/1999/02/22-rdf-syntax-ns#"
   xmlns:svg="http://www.w3.org/2000/svg"
   xmlns="http://www.w3.org/2000/svg"
   xmlns:sodipodi="http://sodipodi.sourceforge.net/DTD/sodipodi-0.dtd"
   xmlns:inkscape="http://www.inkscape.org/namespaces/inkscape"
   version="1.1"
   x="0px"
   y="0px"
   viewBox="0 0 100 125"
   enable-background="new 0 0 100 100"
   xml:space="preserve"
   id="svg2"
   inkscape:version="0.48.5 r10040"
   width="100%"
   height="100%"
   sodipodi:docname="noun_67614_cc.svg"><metadata
     id="metadata74"><rdf:RDF><cc:Work
         rdf:about=""><dc:format>image/svg+xml</dc:format><dc:type
           rdf:resource="http://purl.org/dc/dcmitype/StillImage" /></cc:Work></rdf:RDF></metadata><defs
     id="defs72" /><sodipodi:namedview
     pagecolor="#ffffff"
     bordercolor="#666666"
     borderopacity="1"
     objecttolerance="10"
     gridtolerance="10"
     guidetolerance="10"
     inkscape:pageopacity="0"
     inkscape:pageshadow="2"
     inkscape:window-width="640"
     inkscape:window-height="480"
     id="namedview70"
     showgrid="false"
     inkscape:zoom="1.888"
     inkscape:cx="50"
     inkscape:cy="62.5"
     inkscape:window-x="0"
     inkscape:window-y="31"
     inkscape:window-maximized="0"
     inkscape:current-layer="svg2" /><g
     id="g4"><g
       id="g6"><path
         d="M36.311,34.05c-3.165,0-5.74,2.575-5.74,5.74c0,3.166,2.575,5.741,5.74,5.741c3.166,0,5.742-2.575,5.742-5.741    C42.053,36.625,39.477,34.05,36.311,34.05z"
         id="path8" /></g></g><path
     d="M37.552,61.518l1.198-5.695c0.254-1.601,1.451-2.823,2.979-3.145l-0.005-0.083l0.831-0.004h3.21  c-1.662-1.253-2.775-3.198-2.904-5.403l-13.31-0.004v0.007l-0.838-0.003c-1.129,0-2.094,0.828-2.261,1.927l-0.008,0.043  l-2.601,12.36h4.495l0.429-5.565l1.558,0.061l-0.001,5.505H37.552z"
     id="path10" /><g
     id="g12"><g
       id="g14"><path
         d="M64.492,34.05c-3.164,0-5.739,2.575-5.739,5.74c0,3.166,2.575,5.741,5.739,5.741c3.167,0,5.742-2.575,5.742-5.741    C70.234,36.625,67.659,34.05,64.492,34.05z"
         id="path16" /></g></g><g
     id="g18"><g
       id="g20"><path
         d="M75.602,49.114c-0.167-1.099-1.133-1.927-2.243-1.927l-15.567-0.004v0.007l-0.355-0.001    c-0.13,2.205-1.242,4.148-2.905,5.401h5.291l-0.006,0.087c1.527,0.321,2.724,1.544,2.978,3.146l1.199,5.694h7.736l-0.001-5.505    l1.558-0.061l0.429,5.565h4.495L75.602,49.114z"
         id="path22" /><path
         d="M44.407,46.756c0-3.165,2.575-5.74,5.74-5.74c3.166,0,5.741,2.575,5.741,5.74s-2.575,5.741-5.741,5.741    C46.982,52.497,44.407,49.921,44.407,46.756z"
         id="path24" /><path
         d="M58.939,62.919l-1.557,0.061l0.001,5.505H44.16l0.001-5.505l-1.558-0.061l-0.429,5.565h-4.494l2.6-12.361l0.008-0.043    c0.168-1.098,1.132-1.926,2.261-1.926l0.838,0.002V54.15h14.794l-0.001,0.004h0.832c1.112,0,2.076,0.828,2.244,1.926l2.607,12.404    h-4.495L58.939,62.919z"
         id="path26" /></g></g><g
     id="g28"><g
       id="g30"><path
         d="M50.147,25.771c-3.165,0-5.74,2.574-5.74,5.739c0,3.167,2.575,5.742,5.74,5.742c3.166,0,5.741-2.575,5.741-5.742    C55.889,28.346,53.313,25.771,50.147,25.771z"
         id="path32" /></g></g><g
     id="g34"><g
       id="g36"><rect
         x="4.588"
         y="15.237"
         transform="matrix(0.7071 0.7071 -0.7071 0.7071 18.8243 -8.2915)"
         width="29.667"
         height="6.68"
         id="rect38" /></g><polygon
       points="26.569,10.809 26.569,25.726 11.479,25.726 18.158,32.406 33.251,32.406 33.251,17.488  "
       id="polygon40" /></g><g
     id="g42"><g
       id="g44"><rect
         x="66.062"
         y="15.237"
         transform="matrix(-0.7071 0.7071 -0.7071 -0.7071 151.2352 -25.4873)"
         width="29.667"
         height="6.68"
         id="rect46" /></g><polygon
       points="73.747,10.809 73.747,25.726 88.839,25.726 82.157,32.406 67.067,32.406 67.067,17.488  "
       id="polygon48" /></g><g
     id="g50"><g
       id="g52"><rect
         x="4.588"
         y="77.476"
         transform="matrix(0.7071 -0.7071 0.7071 0.7071 -51.4579 37.4034)"
         width="29.667"
         height="6.681"
         id="rect54" /></g><polygon
       points="26.569,88.586 26.569,73.668 11.479,73.668 18.158,66.987 33.251,66.987 33.251,81.905  "
       id="polygon56" /></g><g
     id="g58"><g
       id="g60"><rect
         x="66.062"
         y="77.476"
         transform="matrix(-0.7071 -0.7071 0.7071 -0.7071 80.9546 195.1652)"
         width="29.667"
         height="6.681"
         id="rect62" /></g><polygon
       points="73.747,88.586 73.747,73.668 88.839,73.668 82.157,66.987 67.067,66.987 67.067,81.905  "
       id="polygon64" /></g></svg>
