<?xml version="1.0" encoding="UTF-8" standalone="no"?>
<svg fill="#d1336e"
   xmlns:dc="http://purl.org/dc/elements/1.1/"
   xmlns:cc="http://creativecommons.org/ns#"
   xmlns:rdf="http://www.w3.org/1999/02/22-rdf-syntax-ns#"
   xmlns:svg="http://www.w3.org/2000/svg"
   xmlns="http://www.w3.org/2000/svg"
   xmlns:sodipodi="http://sodipodi.sourceforge.net/DTD/sodipodi-0.dtd"
   xmlns:inkscape="http://www.inkscape.org/namespaces/inkscape"
   version="1.1"
   x="0px"
   y="0px"
   viewBox="0 0 100 125"
   enable-background="new 0 0 100 100"
   xml:space="preserve"
   id="svg2"
   inkscape:version="0.48.5 r10040"
   width="100%"
   height="100%"
   sodipodi:docname="noun_98654_cc.svg"><metadata
     id="metadata14"><rdf:RDF><cc:Work
         rdf:about=""><dc:format>image/svg+xml</dc:format><dc:type
           rdf:resource="http://purl.org/dc/dcmitype/StillImage" /></cc:Work></rdf:RDF></metadata><defs
     id="defs12" /><sodipodi:namedview
     pagecolor="#ffffff"
     bordercolor="#666666"
     borderopacity="1"
     objecttolerance="10"
     gridtolerance="10"
     guidetolerance="10"
     inkscape:pageopacity="0"
     inkscape:pageshadow="2"
     inkscape:window-width="640"
     inkscape:window-height="480"
     id="namedview10"
     showgrid="false"
     inkscape:zoom="1.888"
     inkscape:cx="38.340996"
     inkscape:cy="62.5"
     inkscape:window-x="0"
     inkscape:window-y="31"
     inkscape:window-maximized="0"
     inkscape:current-layer="svg2" /><path
     d="M65,26h9c1.656,0,3-1.343,3-3s-1.344-3-3-3h-9c-1.656,0-3,1.343-3,3S63.344,26,65,26z M80,44  c-1.306,0-2.576,0.147-3.804,0.413l-5.411-13.527c-0.003-0.008-0.008-0.015-0.012-0.022c-0.012-0.028-0.025-0.056-0.037-0.084  c-0.039-0.085-0.089-0.165-0.135-0.247c-0.002-0.004-0.004-0.008-0.007-0.012c-0.034-0.062-0.062-0.129-0.101-0.188  c-0.014-0.019-0.028-0.034-0.041-0.053c-0.053-0.074-0.114-0.141-0.173-0.21c-0.054-0.062-0.1-0.132-0.157-0.189  c-0.016-0.016-0.034-0.026-0.049-0.042c-0.061-0.058-0.129-0.107-0.195-0.161s-0.127-0.115-0.197-0.162  c-0.025-0.018-0.055-0.028-0.08-0.044c-0.021-0.014-0.037-0.031-0.059-0.044c-0.052-0.031-0.108-0.049-0.162-0.076  c-0.068-0.036-0.133-0.08-0.203-0.11c-0.033-0.015-0.07-0.021-0.104-0.034c-0.086-0.033-0.172-0.057-0.258-0.081  c-0.066-0.02-0.129-0.046-0.197-0.061c-0.033-0.007-0.07-0.008-0.104-0.014c-0.091-0.016-0.182-0.023-0.273-0.03  c-0.073-0.006-0.144-0.019-0.218-0.02C68.016,29.002,68.008,29,68,29H36.162l1.684-5.052c0.019-0.054,0.021-0.107,0.037-0.161  c0.027-0.102,0.052-0.202,0.068-0.308c0.018-0.106,0.026-0.211,0.032-0.316C37.986,23.108,38,23.056,38,23  c0-0.037-0.01-0.071-0.011-0.107c-0.004-0.11-0.017-0.219-0.033-0.327c-0.013-0.091-0.026-0.181-0.048-0.269  c-0.023-0.096-0.055-0.188-0.087-0.281c-0.032-0.092-0.063-0.184-0.104-0.271c-0.04-0.086-0.088-0.166-0.135-0.248  c-0.049-0.084-0.098-0.167-0.154-0.246s-0.12-0.15-0.185-0.224c-0.062-0.071-0.124-0.142-0.192-0.206  c-0.07-0.066-0.147-0.126-0.225-0.186c-0.078-0.061-0.156-0.119-0.24-0.172c-0.076-0.048-0.156-0.089-0.238-0.13  c-0.099-0.05-0.197-0.096-0.302-0.135c-0.034-0.013-0.062-0.032-0.097-0.044c-0.054-0.018-0.107-0.021-0.16-0.036  c-0.102-0.027-0.203-0.053-0.307-0.069c-0.11-0.019-0.219-0.027-0.328-0.033C35.102,20.013,35.053,20,35,20H23c-4.963,0-9,4.037-9,9  s4.037,9,9,9c1.656,0,3-1.343,3-3s-1.344-3-3-3c-1.654,0-3-1.346-3-3s1.346-3,3-3h7.838l-1.654,4.964l-5.38,13.449  C22.576,44.147,21.306,44,20,44c-9.926,0-18,8.075-18,18s8.074,18,18,18s18-8.075,18-18c0-6.491-3.466-12.174-8.633-15.341  l3.172-7.929l14.889,24.813c0.011,0.018,0.027,0.03,0.038,0.048c0.027,0.043,0.052,0.087,0.081,0.128  c0.055,0.077,0.119,0.146,0.182,0.219c0.059,0.069,0.112,0.142,0.177,0.205c0.015,0.014,0.027,0.026,0.042,0.04  c0.056,0.053,0.121,0.096,0.182,0.145c0.088,0.07,0.174,0.141,0.27,0.2c0.021,0.014,0.037,0.031,0.059,0.044  c0.019,0.012,0.039,0.019,0.059,0.03c0.028,0.016,0.058,0.028,0.087,0.044c0.073,0.039,0.146,0.081,0.222,0.113  c0.012,0.005,0.025,0.009,0.037,0.014c0.125,0.052,0.252,0.094,0.381,0.128c0.01,0.002,0.02,0.003,0.029,0.006  c0.02,0.005,0.039,0.007,0.06,0.012c0.044,0.011,0.089,0.019,0.134,0.027C49.642,64.979,49.819,65,49.997,65  c0.001,0,0.001,0,0.001,0C49.999,65,50,65,50,65h12.271C63.706,73.499,71.1,80,80,80c9.926,0,18-8.075,18-18S89.926,44,80,44z   M32,62c0,6.617-5.383,12-12,12S8,68.617,8,62s5.383-12,12-12c0.518,0,1.024,0.044,1.525,0.108l-4.311,10.777  c-0.615,1.538,0.133,3.284,1.671,3.899c0.366,0.146,0.742,0.216,1.113,0.216c1.19,0,2.317-0.714,2.786-1.887l4.309-10.771  C30.062,54.53,32,58.038,32,62z M72.906,52.344L75.568,59h-7.174C69.096,56.292,70.715,53.957,72.906,52.344z M37.299,35h25.402  L50,56.169L37.299,35z M62.271,59h-6.973l12.162-20.27l3.172,7.929C66.281,49.326,63.152,53.779,62.271,59z M80,74  c-5.579,0-10.268-3.833-11.605-9h11.594c0.004,0,0.008,0.001,0.013,0.001c0.192,0,0.388-0.021,0.581-0.06  c0.096-0.019,0.185-0.054,0.277-0.081c0.084-0.026,0.171-0.041,0.255-0.075c0.007-0.003,0.013-0.008,0.021-0.011  c0.13-0.054,0.25-0.123,0.371-0.193c0.052-0.03,0.109-0.054,0.158-0.086c0.095-0.063,0.178-0.141,0.264-0.214  c0.062-0.053,0.133-0.1,0.189-0.156c0.07-0.069,0.125-0.15,0.188-0.227c0.061-0.072,0.127-0.139,0.179-0.216  c0.075-0.11,0.132-0.231,0.192-0.351c0.025-0.052,0.06-0.1,0.082-0.153c0.037-0.087,0.059-0.181,0.087-0.271  c0.03-0.096,0.069-0.189,0.09-0.288c0.013-0.062,0.013-0.129,0.022-0.192c0.02-0.134,0.039-0.268,0.041-0.404  C82.998,62.016,83,62.008,83,62c0-0.068-0.016-0.132-0.02-0.198c-0.009-0.124-0.014-0.246-0.037-0.37  c-0.023-0.116-0.062-0.226-0.098-0.337c-0.021-0.069-0.033-0.141-0.061-0.209l-0.021-0.054l-4.289-10.724  C78.976,50.044,79.482,50,80,50c6.617,0,12,5.383,12,12S86.617,74,80,74z"
     id="path4" /></svg>
