<?xml version="1.0" encoding="UTF-8" standalone="no"?>
<svg
   xmlns:dc="http://purl.org/dc/elements/1.1/"
   xmlns:cc="http://creativecommons.org/ns#"
   xmlns:rdf="http://www.w3.org/1999/02/22-rdf-syntax-ns#"
   xmlns:svg="http://www.w3.org/2000/svg"
   xmlns="http://www.w3.org/2000/svg"
   xmlns:sodipodi="http://sodipodi.sourceforge.net/DTD/sodipodi-0.dtd"
   xmlns:inkscape="http://www.inkscape.org/namespaces/inkscape"
   version="1.1"
   x="0px"
   y="0px"
   viewBox="0 0 16 20"
   enable-background="new 0 0 16 16"
   xml:space="preserve"
   id="svg2"
   inkscape:version="0.48.5 r10040"
   width="100%"
   height="100%"
   sodipodi:docname="ic_marker_private.svg"><metadata
     id="metadata14"><rdf:RDF><cc:Work
         rdf:about=""><dc:format>image/svg+xml</dc:format><dc:type
           rdf:resource="http://purl.org/dc/dcmitype/StillImage" /></cc:Work></rdf:RDF></metadata><defs
     id="defs12" /><sodipodi:namedview
     pagecolor="#ffffff"
     bordercolor="#666666"
     borderopacity="1"
     objecttolerance="10"
     gridtolerance="10"
     guidetolerance="10"
     inkscape:pageopacity="0"
     inkscape:pageshadow="2"
     inkscape:window-width="1680"
     inkscape:window-height="997"
     id="namedview10"
     showgrid="false"
     inkscape:zoom="11.8"
     inkscape:cx="283.32229"
     inkscape:cy="-3.559322"
     inkscape:window-x="0"
     inkscape:window-y="31"
     inkscape:window-maximized="1"
     inkscape:current-layer="svg2" /><path
     fill-rule="evenodd"
     clip-rule="evenodd"
     d="M8,14c-1.29,0-2.49-0.42-3.47-1.12l8.36-8.35C13.58,5.51,14,6.71,14,8  C14,11.31,11.31,14,8,14z M2,8c0-3.31,2.69-6,6-6c1.29,0,2.49,0.42,3.47,1.12l-8.36,8.35C2.42,10.49,2,9.29,2,8z M14.31,3.1  l0.05-0.05l-1.41-1.41L12.9,1.69C11.55,0.63,9.85,0,8,0C3.58,0,0,3.58,0,8c0,1.85,0.63,3.54,1.69,4.9l-0.05,0.05l1.41,1.41  l0.05-0.05C4.45,15.37,6.15,16,8,16c4.42,0,8-3.58,8-8C16,6.15,15.37,4.46,14.31,3.1z"
     id="path4" /></svg>