<?xml version="1.0" encoding="UTF-8" standalone="no"?>
<svg
   xmlns:dc="http://purl.org/dc/elements/1.1/"
   xmlns:cc="http://creativecommons.org/ns#"
   xmlns:rdf="http://www.w3.org/1999/02/22-rdf-syntax-ns#"
   xmlns:svg="http://www.w3.org/2000/svg"
   xmlns="http://www.w3.org/2000/svg"
   xmlns:sodipodi="http://sodipodi.sourceforge.net/DTD/sodipodi-0.dtd"
   xmlns:inkscape="http://www.inkscape.org/namespaces/inkscape"
   version="1.1"
   x="0px"
   y="0px"
   viewBox="0 0 100 125"
   enable-background="new 0 0 100 100"
   xml:space="preserve"
   id="svg4209"
   inkscape:version="0.48.5 r10040"
   width="100%"
   height="100%"
   sodipodi:docname="noun_199345_cc.svg"><metadata
     id="metadata4235"><rdf:RDF><cc:Work
         rdf:about=""><dc:format>image/svg+xml</dc:format><dc:type
           rdf:resource="http://purl.org/dc/dcmitype/StillImage" /></cc:Work></rdf:RDF></metadata><defs
     id="defs4233" /><sodipodi:namedview
     pagecolor="#ffffff"
     bordercolor="#666666"
     borderopacity="1"
     objecttolerance="10"
     gridtolerance="10"
     guidetolerance="10"
     inkscape:pageopacity="0"
     inkscape:pageshadow="2"
     inkscape:window-width="640"
     inkscape:window-height="480"
     id="namedview4231"
     showgrid="false"
     inkscape:zoom="1.888"
     inkscape:cx="29.409493"
     inkscape:cy="29.358885"
     inkscape:window-x="0"
     inkscape:window-y="31"
     inkscape:window-maximized="0"
     inkscape:current-layer="svg4209" /><g
     id="g4211"><path
       fill="#000000"
       d="M18.9,18.1h-3.3c-0.9,0-1.6,0.7-1.6,1.6v1.2V28v9.1v2.1v9v8.7v7.5v2.1v14.6c0,0.9,0.7,1.6,1.6,1.6h3.3   c0.9,0,1.6-0.7,1.6-1.6V66.5v-2.1V50.3v-2.1v-9v-2.1V23v-2.1v-1.2C20.4,18.8,19.7,18.1,18.9,18.1z"
       id="path4213" /><polygon
       fill="#000000"
       points="5,39.2 11.4,39.2 11.4,37.1 7.1,37.1 7.1,36.5 11.4,31.2 11.4,20.9 5,20.9  "
       id="polygon4215" /><polygon
       fill="#000000"
       points="5.4,66.5 11.4,66.5 11.4,64.4 7.9,64.4 11.4,60.1 11.4,48.2 5.4,48.2  "
       id="polygon4217" /><path
       fill="#000000"
       d="M84.1,18.1h-3.3c-0.9,0-1.6,0.7-1.6,1.6v1.2V23v14.2v2.1v9v3.6v12.7v2.1v14.6c0,0.9,0.7,1.6,1.6,1.6h3.3   c0.9,0,1.6-0.7,1.6-1.6V66.5v-4.5V50.3v-2.1v-9v-6.1V23v-2.1v-1.2C85.7,18.8,85,18.1,84.1,18.1z"
       id="path4219" /><polygon
       fill="#000000"
       points="88.3,48.2 88.3,50.3 92.9,50.3 92.9,53.1 88.3,58.9 88.3,66.5 95,66.5 95,48.2  "
       id="polygon4221" /><polygon
       fill="#000000"
       points="94.6,20.9 88.3,20.9 88.3,23 92.5,23 92.5,24.6 88.3,29.9 88.3,39.2 94.6,39.2  "
       id="polygon4223" /><path
       fill="#000000"
       d="M23,23h9.8L23,35.1v13.2v2.1h4.8h0.6h5.8l-5.8,7.1L23,64.2v2.3v6.1c0.3,0.3,0.7,0.6,1.2,0.6h1.9   c0.9,0,1.6-0.7,1.6-1.6v-5.1h43.9v5.1c0,0.9,0.7,1.6,1.6,1.6h1.9c0.6,0,1-0.3,1.3-0.7v-6v-2.1h-4.9h-1.4h-1.4l1.7-2.1l6-7.7v-6.4   V37.1h-9l9-11.1v-5.1H23V23z M52.6,64.4H37.8l11.5-14.2h14.8L52.6,64.4z M71.7,39.2v9H27.8v-9H71.7z M47.9,23h14.8L51.3,37.1H36.5   L47.9,23z"
       id="path4225" /></g></svg>