<?xml version="1.0" encoding="UTF-8" standalone="no"?>
<svg fill="#38b5c7"
   xmlns:dc="http://purl.org/dc/elements/1.1/"
   xmlns:cc="http://creativecommons.org/ns#"
   xmlns:rdf="http://www.w3.org/1999/02/22-rdf-syntax-ns#"
   xmlns:svg="http://www.w3.org/2000/svg"
   xmlns="http://www.w3.org/2000/svg"
   xmlns:sodipodi="http://sodipodi.sourceforge.net/DTD/sodipodi-0.dtd"
   xmlns:inkscape="http://www.inkscape.org/namespaces/inkscape"
   version="1.1"
   x="0px"
   y="0px"
   viewBox="0 0 90 112.5"
   enable-background="new 0 0 90 90"
   xml:space="preserve"
   id="svg3877"
   inkscape:version="0.48.5 r10040"
   width="100%"
   height="100%"
   sodipodi:docname="noun_42836_cc.svg"><metadata
     id="metadata3893"><rdf:RDF><cc:Work
         rdf:about=""><dc:format>image/svg+xml</dc:format><dc:type
           rdf:resource="http://purl.org/dc/dcmitype/StillImage" /></cc:Work></rdf:RDF></metadata><defs
     id="defs3891" /><sodipodi:namedview
     pagecolor="#ffffff"
     bordercolor="#666666"
     borderopacity="1"
     objecttolerance="10"
     gridtolerance="10"
     guidetolerance="10"
     inkscape:pageopacity="0"
     inkscape:pageshadow="2"
     inkscape:window-width="640"
     inkscape:window-height="480"
     id="namedview3889"
     showgrid="false"
     inkscape:zoom="2.0977778"
     inkscape:cx="45"
     inkscape:cy="56.25"
     inkscape:window-x="0"
     inkscape:window-y="31"
     inkscape:window-maximized="0"
     inkscape:current-layer="svg3877" /><path
     d="M77.386,17.494h-7.075c-0.27,0-10.856,9.82-10.856,9.82c-0.122,0.123-0.215,0.263-0.292,0.409H39.936h-4.784H13.826  c-2.155,0-3.391,1.684-2.751,3.74l7.02,22.507c0.643,2.057,2.93,3.74,5.084,3.74h11.973h4.784h11.971  c2.155,0,4.443-1.684,5.083-3.74l6.955-22.291l7.706-7.708h5.735c0.939,0,1.709-0.768,1.709-1.708v-3.063  C79.095,18.262,78.325,17.494,77.386,17.494z"
     id="path3879" /><circle
     cx="25.468"
     cy="67.284"
     r="5.222"
     id="circle3881" /><circle
     cx="49.62"
     cy="67.284"
     r="5.223"
     id="circle3883" /></svg>
