<?xml  version="1.0" encoding="UTF-8" standalone="no"?>
<svg fill="#4f3e6a"
   xmlns:dc="http://purl.org/dc/elements/1.1/"
   xmlns:cc="http://creativecommons.org/ns#"
   xmlns:rdf="http://www.w3.org/1999/02/22-rdf-syntax-ns#"
   xmlns:svg="http://www.w3.org/2000/svg"
   xmlns="http://www.w3.org/2000/svg"
   xmlns:sodipodi="http://sodipodi.sourceforge.net/DTD/sodipodi-0.dtd"
   xmlns:inkscape="http://www.inkscape.org/namespaces/inkscape"
   version="1.1"
   x="0px"
   y="0px"
   viewBox="0 0 100 125"
   enable-background="new 0 0 100 100"
   xml:space="preserve"
   id="svg2"
   inkscape:version="0.48.5 r10040"
   width="100%"
   height="100%"
   sodipodi:docname="noun_100165_cc.svg"><metadata
     id="metadata20"><rdf:RDF><cc:Work
         rdf:about=""><dc:format>image/svg+xml</dc:format><dc:type
           rdf:resource="http://purl.org/dc/dcmitype/StillImage" /></cc:Work></rdf:RDF></metadata><defs
     id="defs18" /><sodipodi:namedview
     pagecolor="#ffffff"
     bordercolor="#666666"
     borderopacity="1"
     objecttolerance="10"
     gridtolerance="10"
     guidetolerance="10"
     inkscape:pageopacity="0"
     inkscape:pageshadow="2"
     inkscape:window-width="640"
     inkscape:window-height="480"
     id="namedview16"
     showgrid="false"
     inkscape:zoom="1.888"
     inkscape:cx="50"
     inkscape:cy="62.018008"
     inkscape:window-x="0"
     inkscape:window-y="31"
     inkscape:window-maximized="0"
     inkscape:current-layer="svg2" /><g
     id="g4"><path
       d="M5.169,7.058v56.19h12.13v29.686h7.826V63.248h51.26v29.686h7.826V63.248h10.957V60.51V7.058H5.169z M10.647,12.536H89.69   v45.235H10.647V12.536z"
       id="path6" /><path
       d="M52.746,46.918V30.395h-5.154v16.523H52.746z M52.746,27.753v-4.769h-5.154v4.769H52.746z"
       id="path8" /><path
       d="M67.561,34.951h-2.087c-0.001,2.119-0.429,4.127-1.202,5.957c-1.16,2.744-3.104,5.084-5.547,6.734   c-2.445,1.65-5.379,2.611-8.556,2.613c-2.119,0-4.126-0.428-5.957-1.201c-2.744-1.16-5.085-3.104-6.735-5.549   s-2.612-5.379-2.612-8.555c0-2.119,0.428-4.127,1.202-5.957c1.16-2.744,3.104-5.085,5.547-6.735   c2.445-1.65,5.378-2.612,8.555-2.613c2.119,0,4.127,0.428,5.956,1.202c2.744,1.16,5.085,3.104,6.736,5.547   c1.65,2.445,2.611,5.378,2.612,8.556H67.561h2.087c0-2.684-0.546-5.251-1.532-7.583c-1.479-3.499-3.946-6.468-7.055-8.568   c-3.105-2.1-6.865-3.329-10.892-3.328c-2.684,0-5.251,0.545-7.583,1.532c-3.498,1.48-6.468,3.947-8.568,7.055   c-2.1,3.106-3.329,6.865-3.328,10.892c0,2.684,0.545,5.25,1.531,7.582c1.48,3.498,3.947,6.469,7.055,8.568   c3.106,2.1,6.865,3.328,10.892,3.328c2.684,0,5.251-0.545,7.583-1.531c3.498-1.48,6.468-3.947,8.567-7.055   s3.329-6.865,3.328-10.893H67.561z"
       id="path10" /></g></svg>
