<?xml version="1.0" encoding="UTF-8" standalone="no"?>
<svg fill="#e8b130"
   xmlns:dc="http://purl.org/dc/elements/1.1/"
   xmlns:cc="http://creativecommons.org/ns#"
   xmlns:rdf="http://www.w3.org/1999/02/22-rdf-syntax-ns#"
   xmlns:svg="http://www.w3.org/2000/svg"
   xmlns="http://www.w3.org/2000/svg"
   xmlns:sodipodi="http://sodipodi.sourceforge.net/DTD/sodipodi-0.dtd"
   xmlns:inkscape="http://www.inkscape.org/namespaces/inkscape"
   version="1.1"
   x="0px"
   y="0px"
   viewBox="0 0 100 125"
   enable-background="new 0 0 100 100"
   xml:space="preserve"
   id="svg3909"
   inkscape:version="0.48.5 r10040"
   width="100%"
   height="100%"
   sodipodi:docname="noun_52544_cc.svg"><metadata
     id="metadata3925"><rdf:RDF><cc:Work
         rdf:about=""><dc:format>image/svg+xml</dc:format><dc:type
           rdf:resource="http://purl.org/dc/dcmitype/StillImage" /></cc:Work></rdf:RDF></metadata><defs
     id="defs3923" /><sodipodi:namedview
     pagecolor="#ffffff"
     bordercolor="#666666"
     borderopacity="1"
     objecttolerance="10"
     gridtolerance="10"
     guidetolerance="10"
     inkscape:pageopacity="0"
     inkscape:pageshadow="2"
     inkscape:window-width="640"
     inkscape:window-height="480"
     id="namedview3921"
     showgrid="false"
     inkscape:zoom="1.888"
     inkscape:cx="50"
     inkscape:cy="62.5"
     inkscape:window-x="0"
     inkscape:window-y="31"
     inkscape:window-maximized="0"
     inkscape:current-layer="svg3909" /><g
     id="g3911"><path
       d="M76.471,10.293H55.299c-2.928,0-5.302,2.374-5.302,5.303v5.283h-5.283c-2.929,0-5.303,2.375-5.303,5.303v2.373   l-8.617-9.452c-0.986-1.082-2.663-1.159-3.746-0.173c-1.082,0.986-1.16,2.663-0.173,3.745l8.028,8.808H20.877   c-1.464,0-2.651,1.187-2.651,2.65c0,1.465,1.187,2.652,2.651,2.652H34.95l-8.074,8.855c-0.987,1.082-0.909,2.76,0.173,3.746   c0.508,0.463,1.148,0.692,1.786,0.692c0.72,0,1.437-0.292,1.96-0.865l8.617-9.452v2.299c0,2.929,2.374,5.303,5.303,5.303h5.283   v37.041c0,2.929,2.375,5.303,5.302,5.303h21.172c2.93,0,5.303-2.374,5.303-5.303V15.596C81.773,12.667,79.4,10.293,76.471,10.293z    M44.713,42.061V26.182h5.283v15.879H44.713z M76.471,84.404H55.299V42.373c0.006-0.104,0.01-0.207,0.01-0.312V26.182   c0-0.105-0.004-0.209-0.01-0.312V15.596h21.172V84.404z"
       id="path3913" /><circle
       cx="65.885"
       cy="42.061"
       r="5.293"
       id="circle3915" /></g></svg>
