<?xml version="1.0" encoding="UTF-8" standalone="no"?>
<svg fill="#947f64"
   xmlns:dc="http://purl.org/dc/elements/1.1/"
   xmlns:cc="http://creativecommons.org/ns#"
   xmlns:rdf="http://www.w3.org/1999/02/22-rdf-syntax-ns#"
   xmlns:svg="http://www.w3.org/2000/svg"
   xmlns="http://www.w3.org/2000/svg"
   xmlns:sodipodi="http://sodipodi.sourceforge.net/DTD/sodipodi-0.dtd"
   xmlns:inkscape="http://www.inkscape.org/namespaces/inkscape"
   version="1.1"
   x="0px"
   y="0px"
   viewBox="0 0 100 125"
   enable-background="new 0 0 100 100"
   xml:space="preserve"
   id="svg3635"
   inkscape:version="0.48.5 r10040"
   width="100%"
   height="100%"
   sodipodi:docname="noun_17709_cc.svg"><metadata
     id="metadata3767"><rdf:RDF><cc:Work
         rdf:about=""><dc:format>image/svg+xml</dc:format><dc:type
           rdf:resource="http://purl.org/dc/dcmitype/StillImage" /></cc:Work></rdf:RDF></metadata><defs
     id="defs3765" /><sodipodi:namedview
     pagecolor="#ffffff"
     bordercolor="#666666"
     borderopacity="1"
     objecttolerance="10"
     gridtolerance="10"
     guidetolerance="10"
     inkscape:pageopacity="0"
     inkscape:pageshadow="2"
     inkscape:window-width="640"
     inkscape:window-height="480"
     id="namedview3763"
     showgrid="false"
     inkscape:zoom="1.888"
     inkscape:cx="50"
     inkscape:cy="62.5"
     inkscape:window-x="0"
     inkscape:window-y="31"
     inkscape:window-maximized="0"
     inkscape:current-layer="svg3635" /><g
     display="none"
     id="g3637"><rect
       x="-192"
       display="inline"
       width="185"
       height="99"
       id="rect3639" /><rect
       y="-36"
       display="inline"
       width="100"
       height="30"
       id="rect3641" /><text
       transform="matrix(1 0 0 1 66 -19.5)"
       display="inline"
       fill="#000000"
       font-family="'Helvetica'"
       font-size="2.4"
       id="text3643">http://thenounproject.com</text>
<text
       transform="matrix(1 0 0 1 7.166 -24.5)"
       display="inline"
       id="text3645"><tspan
         x="0"
         y="0"
         fill="#000000"
         font-family="'Helvetica-Bold'"
         font-size="6.1578"
         id="tspan3647">The Noun Project</tspan><tspan
         x="1.12"
         y="4.8"
         fill="#000000"
         font-family="'Helvetica-Bold'"
         font-size="4"
         id="tspan3649">Icon Template</tspan></text>
<text
       transform="matrix(1 0 0 1 -178.5 10.5)"
       display="inline"
       fill="#000000"
       font-family="'Helvetica-Bold'"
       font-size="6.1578"
       id="text3651">Reminders</text>
<line
       display="inline"
       fill="#000000"
       stroke="#FFFFFF"
       stroke-miterlimit="10"
       x1="8"
       y1="-14.5"
       x2="18"
       y2="-14.5"
       id="line3653" /><line
       display="inline"
       fill="#000000"
       stroke="#FFFFFF"
       stroke-miterlimit="10"
       x1="-179"
       y1="16.5"
       x2="-162"
       y2="16.5"
       id="line3655" /><g
       display="inline"
       id="g3657"><g
         id="g3659"><g
           id="g3661"><rect
             x="-170.802"
             y="31.318"
             fill="#000000"
             width="8.721"
             height="8.642"
             id="rect3663" /><path
             fill="#000000"
             d="M-164.455,42.312h4.747v-4.703h-4.747V42.312z M-159.266,42.749h-5.63V37.17h5.63V42.749      L-159.266,42.749z M-166.221,44.062h8.279v-8.203h-8.279V44.062L-166.221,44.062z M-157.5,44.5h-9.163v-9.079h9.163V44.5      L-157.5,44.5z"
             id="path3665" /><polygon
             fill="#000000"
             points="-166.149,44.133 -166.292,43.991 -158.013,35.787 -157.871,35.929     "
             id="polygon3667" /></g></g></g><rect
       x="-179"
       y="58"
       display="inline"
       fill="none"
       width="35"
       height="32.5"
       id="rect3669" /><text
       transform="matrix(1 0 0 1 -179 60.1299)"
       display="inline"
       id="text3671"><tspan
         x="0"
         y="0"
         fill="#000000"
         font-family="'Helvetica-Bold'"
         font-size="3"
         id="tspan3673">Strokes</tspan><tspan
         x="0"
         y="5"
         fill="#000000"
         font-family="'Helvetica'"
         font-size="2.4"
         id="tspan3675">Try to keep strokes at 4px</tspan><tspan
         x="0"
         y="10"
         fill="#000000"
         font-family="'Helvetica'"
         font-size="2.4"
         id="tspan3677">Minimum stroke weight is 2px</tspan><tspan
         x="0"
         y="14.5"
         fill="#000000"
         font-family="'Helvetica'"
         font-size="2.4"
         id="tspan3679">For thicker strokes use even </tspan><tspan
         x="0"
         y="17.5"
         fill="#000000"
         font-family="'Helvetica'"
         font-size="2.4"
         id="tspan3681">numbers: 6px, 8px etc.</tspan><tspan
         x="0"
         y="22"
         fill="#000000"
         font-family="'Helvetica-Bold'"
         font-size="2.4"
         id="tspan3683">Remember to expand strokes </tspan><tspan
         x="0"
         y="25"
         fill="#000000"
         font-family="'Helvetica-Bold'"
         font-size="2.4"
         id="tspan3685">before saving as an SVG </tspan></text>
<rect
       x="-136.5"
       y="58"
       display="inline"
       fill="none"
       width="35"
       height="32.5"
       id="rect3687" /><text
       transform="matrix(1 0 0 1 -136.5 60.1299)"
       display="inline"
       id="text3689"><tspan
         x="0"
         y="0"
         fill="#000000"
         font-family="'Helvetica-Bold'"
         font-size="3"
         id="tspan3691">Size</tspan><tspan
         x="0"
         y="5"
         fill="#000000"
         font-family="'Helvetica'"
         font-size="2.4"
         id="tspan3693">Cannot be wider or taller than </tspan><tspan
         x="0"
         y="8.5"
         fill="#000000"
         font-family="'Helvetica'"
         font-size="2.4"
         id="tspan3695">100px (artboard size)</tspan><tspan
         x="0"
         y="13.5"
         fill="#000000"
         font-family="'Helvetica'"
         font-size="2.4"
         id="tspan3697">Scale your icon to fill as much of </tspan><tspan
         x="0"
         y="16.5"
         fill="#000000"
         font-family="'Helvetica'"
         font-size="2.4"
         id="tspan3699">the artboard as possible</tspan></text>
<rect
       x="-94"
       y="58"
       display="inline"
       fill="none"
       width="35"
       height="32.5"
       id="rect3701" /><text
       transform="matrix(1 0 0 1 -94 60.1299)"
       display="inline"
       id="text3703"><tspan
         x="0"
         y="0"
         fill="#000000"
         font-family="'Helvetica-Bold'"
         font-size="3"
         id="tspan3705">Ungroup</tspan><tspan
         x="0"
         y="5"
         fill="#000000"
         font-family="'Helvetica'"
         font-size="2.4"
         id="tspan3707">If your design has more than one </tspan><tspan
         x="0"
         y="8"
         fill="#000000"
         font-family="'Helvetica'"
         font-size="2.4"
         id="tspan3709">shape, make sure to ungroup</tspan></text>
<rect
       x="-50"
       y="58"
       display="inline"
       fill="none"
       width="35"
       height="32.5"
       id="rect3711" /><text
       transform="matrix(1 0 0 1 -50 60.1299)"
       display="inline"
       id="text3713"><tspan
         x="0"
         y="0"
         fill="#000000"
         font-family="'Helvetica-Bold'"
         font-size="3"
         id="tspan3715">Save as</tspan><tspan
         x="0"
         y="5"
         fill="#000000"
         font-family="'Helvetica'"
         font-size="2.4"
         id="tspan3717">Save as .SVG and make sure “Use </tspan><tspan
         x="0"
         y="8"
         fill="#000000"
         font-family="'Helvetica'"
         font-size="2.4"
         id="tspan3719">Artboards” is checked</tspan></text>
<text
       transform="matrix(1.0074 0 0 1 -125.542 30.5933)"
       display="inline"
       fill="#000000"
       font-family="'Helvetica'"
       font-size="2.5731"
       id="text3721">100px</text>
<text
       transform="matrix(1.0074 0 0 1 -41 39)"
       display="inline"
       fill="#000000"
       font-family="'Helvetica-Bold'"
       font-size="5.1462"
       id="text3723">.SVG</text>
<rect
       x="-126.514"
       y="34.815"
       display="inline"
       fill="#000000"
       width="10.261"
       height="10.185"
       id="rect3725" /><rect
       x="-126.477"
       y="31.766"
       display="inline"
       fill="#000000"
       width="0.522"
       height="2.337"
       id="rect3727" /><rect
       x="-116.813"
       y="31.766"
       display="inline"
       fill="#000000"
       width="0.523"
       height="2.337"
       id="rect3729" /><rect
       x="-127"
       y="32.337"
       display="inline"
       fill="#000000"
       width="11.233"
       height="0.572"
       id="rect3731" /><g
       display="inline"
       id="g3733"><rect
         x="-83.805"
         y="33.844"
         fill="#000000"
         width="10.305"
         height="10.156"
         id="rect3735" /><rect
         x="-76.809"
         y="28.707"
         fill="#000000"
         width="3.308"
         height="3.261"
         id="rect3737" /></g><rect
       x="-178.5"
       y="22.5"
       display="inline"
       fill="#000000"
       stroke="#FFFFFF"
       stroke-miterlimit="10"
       width="30"
       height="30"
       id="rect3739" /><rect
       x="-136.5"
       y="22.5"
       display="inline"
       fill="#000000"
       stroke="#FFFFFF"
       stroke-miterlimit="10"
       width="30"
       height="30"
       id="rect3741" /><rect
       x="-93.5"
       y="22.5"
       display="inline"
       fill="#000000"
       stroke="#FFFFFF"
       stroke-miterlimit="10"
       width="30"
       height="30"
       id="rect3743" /><rect
       x="-49.5"
       y="22.5"
       display="inline"
       fill="#000000"
       stroke="#FFFFFF"
       stroke-miterlimit="10"
       width="30"
       height="30"
       id="rect3745" /></g><g
     id="g3747"><g
       id="g3749"><g
         id="g3751"><path
           d="M50,0C22.386,0,0,22.386,0,50s22.386,50,50,50s50-22.386,50-50S77.614,0,50,0z M50,90c-22.091,0-40-17.908-40-40     c0-22.091,17.909-40,40-40c22.092,0,40,17.909,40,40C90,72.092,72.092,90,50,90z"
           id="path3753" /></g></g><path
       d="M54,50c0,3.313-2.238,6-5,6l0,0c-2.762,0-5-2.687-5-6V20c0-3.313,2.238-6,5-6l0,0c2.762,0,5,2.687,5,6V50z"
       id="path3755" /><path
       d="M47.096,56.16c-2.812-1.753-3.834-5.191-2.283-7.681l0,0c1.552-2.49,5.089-3.087,7.901-1.335l25.462,15.865   c2.812,1.753,3.834,5.192,2.283,7.682l0,0c-1.551,2.489-5.089,3.087-7.901,1.335L47.096,56.16z"
       id="path3757" /></g></svg>
