<?xml version="1.0" encoding="UTF-8" standalone="no"?>
<svg fill="#947f64"
   xmlns:dc="http://purl.org/dc/elements/1.1/"
   xmlns:cc="http://creativecommons.org/ns#"
   xmlns:rdf="http://www.w3.org/1999/02/22-rdf-syntax-ns#"
   xmlns:svg="http://www.w3.org/2000/svg"
   xmlns="http://www.w3.org/2000/svg"
   xmlns:sodipodi="http://sodipodi.sourceforge.net/DTD/sodipodi-0.dtd"
   xmlns:inkscape="http://www.inkscape.org/namespaces/inkscape"
   version="1.1"
   x="0px"
   y="0px"
   viewBox="0 0 100 125"
   enable-background="new 0 0 100 100"
   xml:space="preserve"
   id="svg3483"
   inkscape:version="0.48.5 r10040"
   width="100%"
   height="100%"
   sodipodi:docname="noun_11678_cc.svg"><metadata
     id="metadata3507"><rdf:RDF><cc:Work
         rdf:about=""><dc:format>image/svg+xml</dc:format><dc:type
           rdf:resource="http://purl.org/dc/dcmitype/StillImage" /></cc:Work></rdf:RDF></metadata><defs
     id="defs3505" /><sodipodi:namedview
     pagecolor="#ffffff"
     bordercolor="#666666"
     borderopacity="1"
     objecttolerance="10"
     gridtolerance="10"
     guidetolerance="10"
     inkscape:pageopacity="0"
     inkscape:pageshadow="2"
     inkscape:window-width="640"
     inkscape:window-height="480"
     id="namedview3503"
     showgrid="false"
     inkscape:zoom="1.888"
     inkscape:cx="50"
     inkscape:cy="62.5"
     inkscape:window-x="0"
     inkscape:window-y="31"
     inkscape:window-maximized="0"
     inkscape:current-layer="svg3483" /><g
     id="g3485"><path
       d="M30.444,22.33H6.588c-1.38,0-2.497,1.118-2.497,2.496v23.856c0,1.38,1.117,2.497,2.497,2.497h23.856   c1.379,0,2.497-1.117,2.497-2.497V24.826C32.941,23.448,31.823,22.33,30.444,22.33z"
       id="path3487" /><path
       d="M61.235,22.33H37.378c-1.379,0-2.497,1.118-2.497,2.496v23.856c0,1.38,1.118,2.497,2.497,2.497h23.857   c1.378,0,2.495-1.117,2.495-2.497V24.826C63.73,23.448,62.613,22.33,61.235,22.33z"
       id="path3489" /><path
       d="M68.167,51.18h23.857c1.378,0,2.497-1.117,2.497-2.497V24.826c0-1.378-1.119-2.496-2.497-2.496H68.167   c-1.378,0-2.495,1.118-2.495,2.496v23.856C65.672,50.062,66.789,51.18,68.167,51.18z"
       id="path3491" /><path
       d="M30.444,52.566H6.588c-1.38,0-2.497,0.247-2.497,0.552l-2.5,5.275c0,0.305,0.285,0.553,1.664,0.553h2.222v16.505H0v2.219   h13.177v-2.219H7.698V58.946h22.746c1.379,0,2.497-0.248,2.497-0.553v-5.275C32.941,52.813,31.823,52.566,30.444,52.566z"
       id="path3493" /><path
       d="M61.235,52.566H37.378c-1.379,0-2.497,0.247-2.497,0.552v5.275c0,0.305,1.118,0.553,2.497,0.553h23.857   c1.378,0,2.495-0.248,2.495-0.553v-5.275C63.73,52.813,62.613,52.566,61.235,52.566z"
       id="path3495" /><path
       d="M94.521,75.451V58.946h0.835c1.378,0,1.663-0.248,1.663-0.553l-2.498-5.275c0-0.305-1.119-0.552-2.497-0.552H68.167   c-1.378,0-2.495,0.247-2.495,0.552v5.275c0,0.305,1.117,0.553,2.495,0.553h24.136v16.505h-5.479v2.219H100v-2.219H94.521z"
       id="path3497" /></g></svg>
