<?xml version="1.0" encoding="UTF-8" standalone="no"?>
<svg fill="#38b5c7"
   xmlns:dc="http://purl.org/dc/elements/1.1/"
   xmlns:cc="http://creativecommons.org/ns#"
   xmlns:rdf="http://www.w3.org/1999/02/22-rdf-syntax-ns#"
   xmlns:svg="http://www.w3.org/2000/svg"
   xmlns="http://www.w3.org/2000/svg"
   xmlns:sodipodi="http://sodipodi.sourceforge.net/DTD/sodipodi-0.dtd"
   xmlns:inkscape="http://www.inkscape.org/namespaces/inkscape"
   version="1.1"
   x="0px"
   y="0px"
   viewBox="0 0 100 125"
   enable-background="new 0 0 100 100"
   xml:space="preserve"
   id="svg4237"
   inkscape:version="0.48.5 r10040"
   width="100%"
   height="100%"
   sodipodi:docname="ic_marker_restaurant.svg"><metadata
     id="metadata4285"><rdf:RDF><cc:Work
         rdf:about=""><dc:format>image/svg+xml</dc:format><dc:type
           rdf:resource="http://purl.org/dc/dcmitype/StillImage" /></cc:Work></rdf:RDF></metadata><defs
     id="defs4283" /><sodipodi:namedview
     pagecolor="#ffffff"
     bordercolor="#666666"
     borderopacity="1"
     objecttolerance="10"
     gridtolerance="10"
     guidetolerance="10"
     inkscape:pageopacity="0"
     inkscape:pageshadow="2"
     inkscape:window-width="640"
     inkscape:window-height="480"
     id="namedview4281"
     showgrid="false"
     inkscape:zoom="1.888"
     inkscape:cx="35.928478"
     inkscape:cy="168.4322"
     inkscape:window-x="0"
     inkscape:window-y="31"
     inkscape:window-maximized="0"
     inkscape:current-layer="svg4237" /><g
     id="g4271"><path
       d="M71.495,7.167c-0.368-0.218-0.828-0.227-1.209-0.02c-0.44,0.241-10.818,6.049-13.839,18.412   c-2.305,9.424,0.324,19.943,7.81,31.274c-0.548,3.737-3.683,27.006,2.121,33.785c1.163,1.36,2.609,2.049,4.294,2.049   c0.015,0,0.234-0.004,0.252-0.005c0.653-0.026,1.17-0.564,1.17-1.219V8.217C72.094,7.786,71.866,7.387,71.495,7.167z"
       id="path4273" /><path
       d="M49.581,30.386v-17.73c0-1.374-1.112-2.487-2.487-2.487c-1.373,0-2.487,1.113-2.487,2.487v4.856v3.093v8.545v0.334   c0,0.92-0.744,1.667-1.664,1.667c-0.921,0-1.667-0.747-1.667-1.667V29.15v-8.545v-3.093v-5.02c0-1.373-1.117-2.487-2.492-2.487   c-1.377,0-2.492,1.114-2.492,2.487v5.02v0.981V29.15v0.334c0,0.92-0.746,1.667-1.667,1.667c-0.921,0-1.667-0.747-1.667-1.667V29.15   V18.493v-0.981v-5.048c0-1.374-1.112-2.487-2.487-2.487c-1.373,0-2.487,1.113-2.487,2.487v17.684   c-0.234,3.269-0.378,13.676,6.6,17.432l-0.863,40.486c0,2.726,2.212,4.937,4.938,4.937c2.726,0,4.936-2.211,4.936-4.937   l-0.703-40.525C49.789,43.841,49.808,33.882,49.581,30.386z"
       id="path4275" /></g></svg>
