<?xml version="1.0" encoding="UTF-8" standalone="no"?>
<svg  fill="#4f3e6a"
   xmlns:dc="http://purl.org/dc/elements/1.1/"
   xmlns:cc="http://creativecommons.org/ns#"
   xmlns:rdf="http://www.w3.org/1999/02/22-rdf-syntax-ns#"
   xmlns:svg="http://www.w3.org/2000/svg"
   xmlns="http://www.w3.org/2000/svg"
   xmlns:sodipodi="http://sodipodi.sourceforge.net/DTD/sodipodi-0.dtd"
   xmlns:inkscape="http://www.inkscape.org/namespaces/inkscape"
   version="1.1"
   x="0px"
   y="0px"
   viewBox="0 0 100 125"
   enable-background="new 0 0 100 100"
   xml:space="preserve"
   id="svg3509"
   inkscape:version="0.48.5 r10040"
   width="100%"
   height="100%"
   sodipodi:docname="ic_marker_ticket_validator.svg"><metadata
     id="metadata3633"><rdf:RDF><cc:Work
         rdf:about=""><dc:format>image/svg+xml</dc:format><dc:type
           rdf:resource="http://purl.org/dc/dcmitype/StillImage" /></cc:Work></rdf:RDF></metadata><defs
     id="defs3631" /><sodipodi:namedview
     pagecolor="#ffffff"
     bordercolor="#666666"
     borderopacity="1"
     objecttolerance="10"
     gridtolerance="10"
     guidetolerance="10"
     inkscape:pageopacity="0"
     inkscape:pageshadow="2"
     inkscape:window-width="1680"
     inkscape:window-height="997"
     id="namedview3629"
     showgrid="false"
     inkscape:zoom="1.888"
     inkscape:cx="-167.05508"
     inkscape:cy="62.235169"
     inkscape:window-x="0"
     inkscape:window-y="31"
     inkscape:window-maximized="1"
     inkscape:current-layer="g3511" /><g
     id="g3511" /><path
     d="M38.963,87.871c-1.312,0-2.568-0.592-3.734-1.762L13.786,64.67c-1.21-1.207-1.462-2.49-1.462-3.354  c0-2.459,1.975-4.633,3.996-6.65l39.173-39.164c1.679-1.734,3.264-3.373,5.521-3.373c1.312,0,2.568,0.592,3.731,1.758l21.444,21.445  c3.735,3.748-0.498,7.975-2.53,10.006L44.482,84.502C42.804,86.232,41.223,87.871,38.963,87.871z M60.979,16.627  c-0.387,0.078-1.509,1.236-2.252,2.004l-0.879,0.898L19.497,57.85c-2.37,2.364-2.692,3.188-2.675,3.469l21.589,21.613  c0.315,0.315,0.501,0.409,0.562,0.436c0.457-0.117,1.547-1.244,2.273-1.994l0.879-0.9l38.35-38.315  c2.371-2.371,2.692-3.191,2.672-3.474L61.561,17.068C61.173,16.68,60.982,16.627,60.979,16.627z"
     id="path3611" /><path
     d="M59.768,26.512c-0.602,0-1.17-0.24-1.592-0.66c-0.419-0.422-0.658-0.99-0.658-1.59c0-0.602,0.239-1.17,0.629-1.592  c0.871-0.84,2.342-0.84,3.211,0c0.42,0.422,0.66,0.99,0.66,1.592c0,0.6-0.24,1.168-0.66,1.59  C60.936,26.271,60.338,26.512,59.768,26.512z"
     id="path3613" /><path
     d="M65.078,31.82c-0.571,0-1.172-0.24-1.592-0.631c-0.422-0.447-0.658-1.021-0.658-1.619c0-0.568,0.236-1.141,0.658-1.588  c0.871-0.842,2.342-0.812,3.18,0c0.422,0.447,0.662,1.02,0.662,1.588c0,0.6-0.24,1.172-0.662,1.59  C66.247,31.58,65.676,31.82,65.078,31.82z"
     id="path3615" /><path
     d="M70.416,37.16c-0.602,0-1.169-0.24-1.588-0.658c-0.422-0.422-0.662-1.02-0.662-1.592c0-0.6,0.24-1.168,0.63-1.59  c0.87-0.838,2.341-0.871,3.211-0.029c0.419,0.451,0.659,1.02,0.659,1.619c0,0.572-0.24,1.141-0.659,1.562  C71.557,36.92,70.986,37.16,70.416,37.16z"
     id="path3617" /><path
     d="M75.729,42.473c-0.602,0-1.172-0.24-1.592-0.662c-0.419-0.42-0.658-0.99-0.658-1.588c0-0.602,0.239-1.172,0.658-1.592  c0.809-0.84,2.342-0.84,3.18,0c0.422,0.42,0.662,1.02,0.662,1.592c0,0.598-0.24,1.168-0.662,1.588  C76.896,42.232,76.328,42.473,75.729,42.473z"
     id="path3619" /><path
     d="M54.036,56.588c-1.242,0-2.25-1.008-2.25-2.25v-5.736h-5.584c-1.242,0-2.25-1.008-2.25-2.25s1.008-2.25,2.25-2.25h7.834  c1.241,0,2.25,1.008,2.25,2.25v7.986C56.286,55.58,55.277,56.588,54.036,56.588z"
     id="path3621" /><path
     d="M42.997,59.646c-0.577,0-1.151-0.222-1.591-0.66c-0.879-0.879-0.879-2.303,0-3.182l11.039-11.046  c0.879-0.879,2.303-0.879,3.182,0c0.879,0.88,0.879,2.304,0,3.183L44.588,58.986C44.148,59.426,43.574,59.646,42.997,59.646z"
     id="path3623" /></svg>
