<?xml version="1.0" encoding="UTF-8" standalone="no"?>
<svg fill="#ed760e"
   xmlns:dc="http://purl.org/dc/elements/1.1/"
   xmlns:cc="http://creativecommons.org/ns#"
   xmlns:rdf="http://www.w3.org/1999/02/22-rdf-syntax-ns#"
   xmlns:svg="http://www.w3.org/2000/svg"
   xmlns="http://www.w3.org/2000/svg"
   xmlns:sodipodi="http://sodipodi.sourceforge.net/DTD/sodipodi-0.dtd"
   xmlns:inkscape="http://www.inkscape.org/namespaces/inkscape"
   version="1.1"
   x="0px"
   y="0px"
   viewBox="0 0 100 125"
   enable-background="new 0 0 100 100"
   xml:space="preserve"
   id="svg3809"
   inkscape:version="0.48.5 r10040"
   width="100%"
   height="100%"
   sodipodi:docname="noun_26877_cc.svg"><metadata
     id="metadata3831"><rdf:RDF><cc:Work
         rdf:about=""><dc:format>image/svg+xml</dc:format><dc:type
           rdf:resource="http://purl.org/dc/dcmitype/StillImage" /></cc:Work></rdf:RDF></metadata><defs
     id="defs3829" /><sodipodi:namedview
     pagecolor="#ffffff"
     bordercolor="#666666"
     borderopacity="1"
     objecttolerance="10"
     gridtolerance="10"
     guidetolerance="10"
     inkscape:pageopacity="0"
     inkscape:pageshadow="2"
     inkscape:window-width="640"
     inkscape:window-height="480"
     id="namedview3827"
     showgrid="false"
     inkscape:zoom="1.888"
     inkscape:cx="50"
     inkscape:cy="62.5"
     inkscape:window-x="0"
     inkscape:window-y="31"
     inkscape:window-maximized="0"
     inkscape:current-layer="svg3809" /><g
     id="g3811"><circle
       cx="49.903"
       cy="49.902"
       r="10.256"
       id="circle3813" /><polygon
       points="12.77,0 24.46,11.693 30.623,5.531 33.376,20.829 36.132,36.13 20.827,33.375 5.532,30.623 11.693,24.461    0.001,12.77  "
       id="polygon3815" /><polygon
       points="87.228,100 75.536,88.31 69.375,94.469 66.624,79.169 63.866,63.87 79.171,66.625 94.468,69.379 88.305,75.537    99.999,87.232  "
       id="polygon3817" /><polygon
       points="0.001,87.232 11.693,75.537 5.532,69.379 20.827,66.625 36.129,63.87 33.376,79.169 30.622,94.469 24.46,88.31    12.77,99.997  "
       id="polygon3819" /><polygon
       points="99.999,12.77 88.309,24.461 94.472,30.623 79.171,33.377 63.873,36.131 66.627,20.829 69.378,5.531 75.54,11.694    87.231,0  "
       id="polygon3821" /></g></svg>
