<?xml version="1.0" encoding="UTF-8" standalone="no"?>
<svg fill="#ed760e"
   xmlns:dc="http://purl.org/dc/elements/1.1/"
   xmlns:cc="http://creativecommons.org/ns#"
   xmlns:rdf="http://www.w3.org/1999/02/22-rdf-syntax-ns#"
   xmlns:svg="http://www.w3.org/2000/svg"
   xmlns="http://www.w3.org/2000/svg"
   xmlns:sodipodi="http://sodipodi.sourceforge.net/DTD/sodipodi-0.dtd"
   xmlns:inkscape="http://www.inkscape.org/namespaces/inkscape"
   version="1.0"
   x="0px"
   y="0px"
   viewBox="0 0 32 40"
   enable-background="new 0 0 32 32"
   xml:space="preserve"
   id="svg2"
   inkscape:version="0.48.5 r10040"
   width="100%"
   height="100%"
   sodipodi:docname="ic_marker_wlan.svg"><metadata
     id="metadata14"><rdf:RDF><cc:Work
         rdf:about=""><dc:format>image/svg+xml</dc:format><dc:type
           rdf:resource="http://purl.org/dc/dcmitype/StillImage" /></cc:Work></rdf:RDF></metadata><defs
     id="defs12" /><sodipodi:namedview
     pagecolor="#ffffff"
     bordercolor="#666666"
     borderopacity="1"
     objecttolerance="10"
     gridtolerance="10"
     guidetolerance="10"
     inkscape:pageopacity="0"
     inkscape:pageshadow="2"
     inkscape:window-width="640"
     inkscape:window-height="480"
     id="namedview10"
     showgrid="false"
     inkscape:zoom="5.9"
     inkscape:cx="374.49474"
     inkscape:cy="4.1464825"
     inkscape:window-x="0"
     inkscape:window-y="31"
     inkscape:window-maximized="0"
     inkscape:current-layer="svg2" /><path
     d="M20.001,28c0,2.211-1.793,4-4,4c-2.211,0-4-1.789-4-4c0-2.207,1.789-4,4-4C18.208,24,20.001,25.793,20.001,28z   M27.462,11.625C24.216,9.347,20.267,8,16.001,8c-4.27,0-8.215,1.348-11.461,3.625c0,0-1.32,1.062-0.352,2.562  s2.324,0.949,2.324,0.949C9.173,13.175,12.446,12,16.001,12s6.828,1.176,9.484,3.137c0,0,1.766,0.676,2.516-0.855  C28.752,12.75,27.462,11.625,27.462,11.625z M23.509,18.648C21.454,16.996,18.845,16,16.001,16s-5.453,0.996-7.512,2.649  c0,0-1.613,1.133-0.457,2.758s2.465,0.812,2.465,0.812C11.931,20.852,13.864,20,16.001,20s4.066,0.852,5.504,2.219  c0,0,1.621,0.5,2.434-1S23.509,18.648,23.509,18.648z"
     id="path4" /></svg>
