<?xml version="1.0" encoding="UTF-8" standalone="no"?>
<svg fill="#ed760e"
   xmlns:dc="http://purl.org/dc/elements/1.1/"
   xmlns:cc="http://creativecommons.org/ns#"
   xmlns:rdf="http://www.w3.org/1999/02/22-rdf-syntax-ns#"
   xmlns:svg="http://www.w3.org/2000/svg"
   xmlns="http://www.w3.org/2000/svg"
   xmlns:sodipodi="http://sodipodi.sourceforge.net/DTD/sodipodi-0.dtd"
   xmlns:inkscape="http://www.inkscape.org/namespaces/inkscape"
   version="1.1"
   x="0px"
   y="0px"
   viewBox="0 0 100 125"
   enable-background="new 0 0 100 100"
   xml:space="preserve"
   id="svg3787"
   inkscape:version="0.48.5 r10040"
   width="100%"
   height="100%"
   sodipodi:docname="noun_26169_cc.svg"><metadata
     id="metadata3807"><rdf:RDF><cc:Work
         rdf:about=""><dc:format>image/svg+xml</dc:format><dc:type
           rdf:resource="http://purl.org/dc/dcmitype/StillImage" /></cc:Work></rdf:RDF></metadata><defs
     id="defs3805" /><sodipodi:namedview
     pagecolor="#ffffff"
     bordercolor="#666666"
     borderopacity="1"
     objecttolerance="10"
     gridtolerance="10"
     guidetolerance="10"
     inkscape:pageopacity="0"
     inkscape:pageshadow="2"
     inkscape:window-width="640"
     inkscape:window-height="480"
     id="namedview3803"
     showgrid="false"
     inkscape:zoom="1.888"
     inkscape:cx="50"
     inkscape:cy="62.5"
     inkscape:window-x="0"
     inkscape:window-y="31"
     inkscape:window-maximized="0"
     inkscape:current-layer="svg3787" /><g
     id="g3789"><path
       d="M1,39.548V80h84V39.548H1z M43.036,71.863c-7.088,0-12.833-5.745-12.833-12.832c0-7.088,5.745-12.834,12.833-12.834   S55.87,51.943,55.87,59.031C55.87,66.118,50.124,71.863,43.036,71.863z"
       id="path3791" /><path
       d="M47.697,64.011l-0.421,0.237c-0.309,0.175-1.419,0.744-2.744,0.744c-1.244,0-2.32-0.441-3.105-1.269   c-0.568-0.631-0.956-1.477-1.156-2.519h6.725v-1.926h-6.96v-0.057c0-0.208,0.009-0.425,0.022-0.633h6.938v-1.951h-6.606   c0.255-1.038,0.679-1.865,1.248-2.416c0.754-0.797,1.728-1.201,2.896-1.201c1.081,0,2.02,0.332,2.496,0.618l0.412,0.247   l0.708-2.338l-0.271-0.146c-0.566-0.304-1.756-0.812-3.369-0.812c-1.988,0-3.678,0.709-5.021,2.105   c-0.997,1.022-1.688,2.38-2.01,3.942h-1.648v1.951h1.391c-0.014,0.221-0.022,0.45-0.023,0.689h-1.367v1.926h1.537   c0.254,1.637,0.851,2.982,1.77,3.998c1.26,1.463,3.092,2.268,5.156,2.268c1.988,0,3.311-0.75,3.787-1.073l0.222-0.149   L47.697,64.011z"
       id="path3793" /><polygon
       points="91.993,31.357 7.993,31.357 7.993,37.739 86.692,37.739 86.692,71.809 91.993,71.809  "
       id="polygon3795" /><polygon
       points="98.987,23.166 14.987,23.166 14.987,29.548 93.687,29.548 93.687,63.617 98.987,63.617  "
       id="polygon3797" /></g></svg>
