<?xml version="1.0" encoding="UTF-8" standalone="no"?>
<svg fill="#e8b130" 
   xmlns:dc="http://purl.org/dc/elements/1.1/"
   xmlns:cc="http://creativecommons.org/ns#"
   xmlns:rdf="http://www.w3.org/1999/02/22-rdf-syntax-ns#"
   xmlns:svg="http://www.w3.org/2000/svg"
   xmlns="http://www.w3.org/2000/svg"
   xmlns:sodipodi="http://sodipodi.sourceforge.net/DTD/sodipodi-0.dtd"
   xmlns:inkscape="http://www.inkscape.org/namespaces/inkscape"
   version="1.1"
   x="0px"
   y="0px"
   viewBox="0 0 100 125"
   enable-background="new 0 0 100 100"
   xml:space="preserve"
   id="svg3833"
   inkscape:version="0.48.5 r10040"
   width="100%"
   height="100%"
   sodipodi:docname="noun_28618_cc.svg"><metadata
     id="metadata3845"><rdf:RDF><cc:Work
         rdf:about=""><dc:format>image/svg+xml</dc:format><dc:type
           rdf:resource="http://purl.org/dc/dcmitype/StillImage" /></cc:Work></rdf:RDF></metadata><defs
     id="defs3843" /><sodipodi:namedview
     pagecolor="#ffffff"
     bordercolor="#666666"
     borderopacity="1"
     objecttolerance="10"
     gridtolerance="10"
     guidetolerance="10"
     inkscape:pageopacity="0"
     inkscape:pageshadow="2"
     inkscape:window-width="640"
     inkscape:window-height="480"
     id="namedview3841"
     showgrid="false"
     inkscape:zoom="1.888"
     inkscape:cx="50"
     inkscape:cy="62.5"
     inkscape:window-x="0"
     inkscape:window-y="31"
     inkscape:window-maximized="0"
     inkscape:current-layer="svg3833" /><path
     d="M86.084,22.623H73.307c-1.527,0-3.453,0.798-5.576,2.242V19.25c0-2.225-1.803-4.028-4.024-4.028h-0.519  c-2.224,0-4.023,1.803-4.023,4.028v13.4c-1.938,1.901-4.379,4.296-7.083,6.943v-4.261c0-2.225-1.803-4.028-4.028-4.028h-0.516  c-2.224,0-4.027,1.803-4.027,4.028v12.646c-3.168,3.098-6.306,6.165-9.084,8.879v-4.955c0-2.224-1.803-4.027-4.028-4.027H29.88  c-2.225,0-4.028,1.803-4.028,4.027v13.326c-0.194,0.188-0.366,0.354-0.505,0.492L14.418,65.63c-7.345,0-13.321,5.978-13.321,13.32  S7.073,92.27,14.391,92.27l13.291,0.213c0.073,0.006,0.208,0.013,0.397,0.013l0,0c1.205,0,5.405-0.271,8.896-3.765l39.511-39.509  l9.598,0.042c7.346,0,13.32-5.975,13.32-13.32C99.404,28.598,93.43,22.623,86.084,22.623z M27.169,68.564  C27.51,68.23,61.32,35.221,65.445,31.095c4.078-4.078,6.859-5.166,7.859-5.166h12.776c5.521,0,10.017,4.493,10.017,10.015  c0,5.521-4.492,10.013-10.009,10.013l-10.967-0.049L34.636,86.396c-2.592,2.592-5.674,2.793-6.557,2.793  c-0.115,0-0.188-0.004-0.199-0.004l-13.462-0.221c-5.521,0-10.014-4.49-10.014-10.014s4.493-10.016,10-10.016 M63.447,5.08  c2.313,0,4.189,1.875,4.189,4.189s-1.876,4.189-4.189,4.189c-2.314,0-4.189-1.875-4.189-4.189S61.133,5.08,63.447,5.08z   M47.816,29.541c2.317-0.011,4.181-1.901,4.167-4.211c-0.012-2.313-1.896-4.179-4.209-4.167c-2.313,0.013-4.179,1.9-4.167,4.213  C43.617,27.688,45.502,29.554,47.816,29.541z M30.138,37.733c2.314,0,4.19,1.876,4.19,4.19c0,2.314-1.876,4.19-4.19,4.19  c-2.314,0-4.19-1.875-4.19-4.19C25.948,39.609,27.824,37.733,30.138,37.733z"
     id="path3835" /></svg>
