<?xml version="1.0" encoding="UTF-8" standalone="no"?>
<svg fill="#ed760e"
   xmlns:dc="http://purl.org/dc/elements/1.1/"
   xmlns:cc="http://creativecommons.org/ns#"
   xmlns:rdf="http://www.w3.org/1999/02/22-rdf-syntax-ns#"
   xmlns:svg="http://www.w3.org/2000/svg"
   xmlns="http://www.w3.org/2000/svg"
   xmlns:sodipodi="http://sodipodi.sourceforge.net/DTD/sodipodi-0.dtd"
   xmlns:inkscape="http://www.inkscape.org/namespaces/inkscape"
   version="1.1"
   x="0px"
   y="0px"
   viewBox="0 0 100 125"
   enable-background="new 0 0 100 100"
   xml:space="preserve"
   id="svg3895"
   inkscape:version="0.48.5 r10040"
   width="100%"
   height="100%"
   sodipodi:docname="noun_52003_cc.svg"><metadata
     id="metadata3907"><rdf:RDF><cc:Work
         rdf:about=""><dc:format>image/svg+xml</dc:format><dc:type
           rdf:resource="http://purl.org/dc/dcmitype/StillImage" /></cc:Work></rdf:RDF></metadata><defs
     id="defs3905" /><sodipodi:namedview
     pagecolor="#ffffff"
     bordercolor="#666666"
     borderopacity="1"
     objecttolerance="10"
     gridtolerance="10"
     guidetolerance="10"
     inkscape:pageopacity="0"
     inkscape:pageshadow="2"
     inkscape:window-width="640"
     inkscape:window-height="480"
     id="namedview3903"
     showgrid="false"
     inkscape:zoom="1.888"
     inkscape:cx="50"
     inkscape:cy="62.5"
     inkscape:window-x="0"
     inkscape:window-y="31"
     inkscape:window-maximized="0"
     inkscape:current-layer="svg3895" /><path
     d="M62.565,51.691l30.974,25.442c-0.455,1.531-1.877,2.657-3.551,2.657H10.012c-1.674,0-3.096-1.126-3.55-2.657L37.435,51.69  l8.873,7.288c1.063,0.869,2.387,1.266,3.692,1.269c1.306-0.003,2.63-0.4,3.691-1.268L62.565,51.691z M93.692,73.878V26.122  L64.624,50L93.692,73.878z M6.307,26.122v47.755l29.068-23.878L6.307,26.122z M89.988,20.209H10.012  c-1.673,0-3.095,1.125-3.55,2.656l1.906,1.565l39.6,32.528c0.512,0.426,1.264,0.675,2.033,0.673  c0.769,0.002,1.521-0.247,2.033-0.673l39.602-32.528l1.904-1.564C93.084,21.335,91.662,20.209,89.988,20.209z"
     id="path3897" /></svg>
