<?xml version="1.0" encoding="UTF-8" standalone="no"?>
<svg fill="#e8b130"
   xmlns:dc="http://purl.org/dc/elements/1.1/"
   xmlns:cc="http://creativecommons.org/ns#"
   xmlns:rdf="http://www.w3.org/1999/02/22-rdf-syntax-ns#"
   xmlns:svg="http://www.w3.org/2000/svg"
   xmlns="http://www.w3.org/2000/svg"
   xmlns:sodipodi="http://sodipodi.sourceforge.net/DTD/sodipodi-0.dtd"
   xmlns:inkscape="http://www.inkscape.org/namespaces/inkscape"
   version="1.0"
   x="0px"
   y="0px"
   viewBox="0 0 100 125"
   enable-background="new 0 0 100 100"
   xml:space="preserve"
   id="svg3847"
   inkscape:version="0.48.5 r10040"
   width="100%"
   height="100%"
   sodipodi:docname="noun_35167_cc.svg"><metadata
     id="metadata3859"><rdf:RDF><cc:Work
         rdf:about=""><dc:format>image/svg+xml</dc:format><dc:type
           rdf:resource="http://purl.org/dc/dcmitype/StillImage" /></cc:Work></rdf:RDF></metadata><defs
     id="defs3857" /><sodipodi:namedview
     pagecolor="#ffffff"
     bordercolor="#666666"
     borderopacity="1"
     objecttolerance="10"
     gridtolerance="10"
     guidetolerance="10"
     inkscape:pageopacity="0"
     inkscape:pageshadow="2"
     inkscape:window-width="640"
     inkscape:window-height="480"
     id="namedview3855"
     showgrid="false"
     inkscape:zoom="1.888"
     inkscape:cx="50"
     inkscape:cy="62.5"
     inkscape:window-x="0"
     inkscape:window-y="31"
     inkscape:window-maximized="0"
     inkscape:current-layer="svg3847" /><path
     d="M50.57617,62.98633L40.50684,77.34668c-1.25488,1.79004-3.72363,2.22461-5.51465,0.96875  c-1.72852-1.21191-2.18652-3.56641-1.08496-5.33789l8.95898-14.34766l0.1416-3.34375  c0.05176-1.41797,0.13965-2.83203,0.16016-4.25293c0.00586-0.08008,0.0166-0.16016,0.02344-0.24023l7.11719,11.48535  L50.57617,62.98633z M58.13281,39.12695l2.89648,4.41797c0.67188,1.02539,1.79004,1.58105,2.92969,1.58105  c0.6582,0,1.32422-0.18555,1.91602-0.57324c1.61621-1.05957,2.06836-3.22949,1.00781-4.8457l-7.25195-11.0625  C58.98047,31.74805,58.38281,35.66211,58.13281,39.12695z M68.76855,73.66113l-5.88477-17.06445  c-0.06641-0.18652-0.15527-0.38672-0.25684-0.56348l-0.15137-0.26465L54.4043,41.71191  c0.00684-0.41699,0.00098-0.82129,0.01953-1.25195c0.04199-0.87109,0.10547-1.75586,0.17969-2.64746  c0.16211-1.78613,0.38867-3.59473,0.66406-5.3916c0.27734-1.7959,0.60352-3.58887,0.99023-5.32324  c0.19434-0.86328,0.40039-1.71973,0.62793-2.52148l0.16992-0.59863l0.14941-0.47168c0.05957-0.24121,0.27539-0.7793,0.43555-1.20996  l0.03223-0.08691l0.00586-0.01465c1.02734-2.78223-0.39551-5.87012-3.17773-6.89746  c-2.42676-0.89648-5.08496,0.07227-6.40723,2.17969l-8.92285,9.65625c-0.32129,0.34668-0.56836,0.75488-0.72656,1.2002  L34.24707,40.1084c-0.64941,1.82031,0.30078,3.82227,2.12207,4.47168c0.3877,0.13867,0.78516,0.2041,1.1748,0.2041  c1.43848,0,2.78613-0.89355,3.29688-2.32617l3.58887-10.06934c-0.2041,1.48047-0.3877,2.9668-0.52344,4.47266  c-0.08789,1.02734-0.16211,2.06348-0.21094,3.11523c-0.04688,1.05566-0.06445,2.1377-0.04688,3.25293v0.00098l0.00977,0.28125  c0.03613,0.83691,0.29492,1.67578,0.79395,2.42383l9.7373,14.59668l6.62598,16.13086c0.85254,2.06348,3.18164,3.1416,5.31934,2.4043  C68.35547,78.30176,69.53418,75.88086,68.76855,73.66113z M52.2832,1.55273c-3.21094,1.17871-4.85938,4.73828-3.67969,7.9502  c1.17871,3.21289,4.73926,4.86035,7.94922,3.68164c3.21094-1.17871,4.85938-4.73828,3.67969-7.95117  C59.05371,2.02148,55.49316,0.37402,52.2832,1.55273z M12.00098,82H2v16h10.00098V82z M33.37891,82H23.37793v16h10.00098V82z   M54.75684,82H44.75586v16h10.00098V82z M76.13477,82H66.13379v16h10.00098V82z M97.5127,82H87.51172v16H97.5127V82z"
     id="path3849" /></svg>
