<?xml version="1.0" encoding="UTF-8" standalone="no"?>
<svg fill="#ed760e"
   xmlns:dc="http://purl.org/dc/elements/1.1/"
   xmlns:cc="http://creativecommons.org/ns#"
   xmlns:rdf="http://www.w3.org/1999/02/22-rdf-syntax-ns#"
   xmlns:svg="http://www.w3.org/2000/svg"
   xmlns="http://www.w3.org/2000/svg"
   xmlns:sodipodi="http://sodipodi.sourceforge.net/DTD/sodipodi-0.dtd"
   xmlns:inkscape="http://www.inkscape.org/namespaces/inkscape"
   version="1.1"
   x="0px"
   y="0px"
   viewBox="0 0 100 125"
   enable-background="new 0 0 100 100"
   xml:space="preserve"
   id="svg3339"
   inkscape:version="0.48.5 r10040"
   width="100%"
   height="100%"
   sodipodi:docname="ic_marker_printer.svg"><metadata
     id="metadata3481"><rdf:RDF><cc:Work
         rdf:about=""><dc:format>image/svg+xml</dc:format><dc:type
           rdf:resource="http://purl.org/dc/dcmitype/StillImage" /></cc:Work></rdf:RDF></metadata><defs
     id="defs3479" /><sodipodi:namedview
     pagecolor="#ffffff"
     bordercolor="#666666"
     borderopacity="1"
     objecttolerance="10"
     gridtolerance="10"
     guidetolerance="10"
     inkscape:pageopacity="0"
     inkscape:pageshadow="2"
     inkscape:window-width="1680"
     inkscape:window-height="997"
     id="namedview3477"
     showgrid="false"
     inkscape:zoom="1.888"
     inkscape:cx="51.059322"
     inkscape:cy="62.5"
     inkscape:window-x="0"
     inkscape:window-y="31"
     inkscape:window-maximized="1"
     inkscape:current-layer="g3341" /><g
     id="g3341" /><g
     id="g3451"><path
       d="M85.436,19.692v-6.563h-6.564V6.563h-6.563V0H6.66v80.308h6.563v6.563h6.564v6.566h6.563V100H92V19.692H85.436z    M10.046,76.923V3.385h58.878v3.178h-55.7v70.36H10.046z M16.609,83.486V9.948h58.877v3.181H19.788v70.357H16.609z M23.173,90.052   V16.514h58.877v3.179h-55.7v70.359H23.173z M88.615,96.615H29.737V23.077h58.878V96.615z"
       id="path3453" /><rect
       x="34.913"
       y="27.303"
       width="48.525"
       height="3.385"
       id="rect3455" /><rect
       x="34.913"
       y="61.46"
       width="16.373"
       height="3.385"
       id="rect3457" /><rect
       x="34.913"
       y="68.294"
       width="48.525"
       height="3.385"
       id="rect3459" /><rect
       x="34.913"
       y="34.134"
       width="48.525"
       height="3.385"
       id="rect3461" /><rect
       x="34.913"
       y="40.965"
       width="48.525"
       height="3.385"
       id="rect3463" /><rect
       x="34.913"
       y="47.799"
       width="24.263"
       height="3.385"
       id="rect3465" /><rect
       x="34.913"
       y="75.125"
       width="48.525"
       height="3.385"
       id="rect3467" /><rect
       x="34.913"
       y="81.959"
       width="48.525"
       height="3.385"
       id="rect3469" /><rect
       x="34.913"
       y="88.789"
       width="24.263"
       height="3.386"
       id="rect3471" /></g></svg>
