<?xml version="1.0" encoding="UTF-8" standalone="no"?>
<svg fill="#ed760e"
   xmlns:dc="http://purl.org/dc/elements/1.1/"
   xmlns:cc="http://creativecommons.org/ns#"
   xmlns:rdf="http://www.w3.org/1999/02/22-rdf-syntax-ns#"
   xmlns:svg="http://www.w3.org/2000/svg"
   xmlns="http://www.w3.org/2000/svg"
   xmlns:sodipodi="http://sodipodi.sourceforge.net/DTD/sodipodi-0.dtd"
   xmlns:inkscape="http://www.inkscape.org/namespaces/inkscape"
   version="1.1"
   x="0px"
   y="0px"
   viewBox="0 0 100 92.84375"
   enable-background="new 0 0 100 74.275"
   xml:space="preserve"
   id="svg2"
   inkscape:version="0.48.5 r10040"
   width="100%"
   height="100%"
   sodipodi:docname="noun_1558_cc.svg"><metadata
     id="metadata18"><rdf:RDF><cc:Work
         rdf:about=""><dc:format>image/svg+xml</dc:format><dc:type
           rdf:resource="http://purl.org/dc/dcmitype/StillImage" /></cc:Work></rdf:RDF></metadata><defs
     id="defs16" /><sodipodi:namedview
     pagecolor="#ffffff"
     bordercolor="#666666"
     borderopacity="1"
     objecttolerance="10"
     gridtolerance="10"
     guidetolerance="10"
     inkscape:pageopacity="0"
     inkscape:pageshadow="2"
     inkscape:window-width="640"
     inkscape:window-height="480"
     id="namedview14"
     showgrid="false"
     inkscape:zoom="2.5419051"
     inkscape:cx="50"
     inkscape:cy="46.421875"
     inkscape:window-x="0"
     inkscape:window-y="31"
     inkscape:window-maximized="0"
     inkscape:current-layer="svg2" /><rect
     x="45.124"
     y="24.433"
     width="6.388"
     height="6.063"
     id="rect4" /><path
     d="M48.439,6.348c1.537,0,2.872,1.011,2.872,2.385c0,3.396-6.349,4.367-6.349,9.825v2.021h6.712v-1.455  c0-3.599,6.914-4.568,6.914-11.2C58.588,2.708,53.695,0,49.167,0c-5.417,0-8.45,3.355-8.45,3.355l3.881,4.73  C44.598,8.086,46.498,6.348,48.439,6.348z"
     id="path6" /><path
     d="M98.766,62.912c-0.738-1.212-1.728-2.256-2.976-3.037c-0.707-0.438-1.877-1.138-3.429-2.052  c-10.825-6.378-39.924-23.07-39.932-23.074l-0.765-0.438l-7.198-0.011l-0.807,0.504c-0.002,0.001-8.318,5.184-17.354,10.867  c-4.519,2.842-9.216,5.809-13.149,8.316c-1.967,1.255-3.742,2.396-5.211,3.351c-1.472,0.958-2.629,1.724-3.404,2.263  c-1.406,0.978-2.516,2.061-3.309,3.296C0.44,64.125-0.005,65.535,0,66.915c-0.002,1.128,0.289,2.2,0.756,3.108  c0.707,1.368,1.766,2.387,2.958,3.096c1.118,0.656,2.376,1.063,3.733,1.119l0.044,0.008h0.264c0.679-0.002,1.735-0.002,3.105-0.002  c10.622,0,40.092,0.03,60.3,0.031c9.863-0.001,17.497-0.008,19.729-0.029c1.301-0.015,2.479-0.158,3.562-0.455  c1.615-0.438,3.066-1.267,4.081-2.506c0.504-0.613,0.884-1.312,1.122-2.026c0.24-0.714,0.345-1.439,0.345-2.134  C99.992,65.534,99.493,64.126,98.766,62.912z M93.331,67.137c-0.181,0.132-0.94,0.467-2.509,0.478  c-2.145,0.021-9.813,0.028-19.661,0.028c-20.204,0-49.67-0.03-60.3-0.03c-1.345,0-2.388,0-3.076,0.002  c-0.025-0.001-0.043-0.001-0.056-0.001c-0.002,0-0.005,0-0.007,0l0,0c-0.002,0.001-0.004,0.001-0.006,0.001s-0.004,0-0.005,0  c-0.196-0.002-0.604-0.146-0.829-0.354c-0.123-0.104-0.194-0.205-0.222-0.262c-0.028-0.061-0.024-0.062-0.026-0.084  c0.005-0.021-0.013-0.121,0.188-0.445c0.2-0.314,0.648-0.827,1.506-1.423c0.657-0.457,1.792-1.21,3.235-2.146  c5.063-3.292,13.979-8.918,21.612-13.709c3.818-2.397,7.317-4.587,9.862-6.177c1.272-0.797,2.307-1.441,3.022-1.888  c0.109-0.068,0.211-0.133,0.306-0.19l3.532,0.004c0.241,0.139,0.535,0.309,0.878,0.506c3.675,2.108,12.932,7.426,21.84,12.57  c4.453,2.572,8.82,5.102,12.355,7.163c1.768,1.029,3.327,1.943,4.582,2.687c1.254,0.74,2.213,1.315,2.738,1.643  c0.262,0.156,0.596,0.487,0.802,0.838c0.205,0.33,0.277,0.653,0.277,0.766C93.357,67.118,93.346,67.126,93.331,67.137z"
     id="path8" /></svg>
