<?xml version="1.0" encoding="UTF-8" standalone="no"?>
<svg fill="#e8b130"
   xmlns:dc="http://purl.org/dc/elements/1.1/"
   xmlns:cc="http://creativecommons.org/ns#"
   xmlns:rdf="http://www.w3.org/1999/02/22-rdf-syntax-ns#"
   xmlns:svg="http://www.w3.org/2000/svg"
   xmlns="http://www.w3.org/2000/svg"
   xmlns:sodipodi="http://sodipodi.sourceforge.net/DTD/sodipodi-0.dtd"
   xmlns:inkscape="http://www.inkscape.org/namespaces/inkscape"
   version="1.1"
   x="0px"
   y="0px"
   viewBox="0 0 100 125"
   enable-background="new 0 0 100 100"
   xml:space="preserve"
   id="svg3165"
   inkscape:version="0.48.5 r10040"
   width="100%"
   height="100%"
   sodipodi:docname="ic_marker_shelter.svg"><metadata
     id="metadata3337"><rdf:RDF><cc:Work
         rdf:about=""><dc:format>image/svg+xml</dc:format><dc:type
           rdf:resource="http://purl.org/dc/dcmitype/StillImage" /></cc:Work></rdf:RDF></metadata><defs
     id="defs3335" /><sodipodi:namedview
     pagecolor="#ffffff"
     bordercolor="#666666"
     borderopacity="1"
     objecttolerance="10"
     gridtolerance="10"
     guidetolerance="10"
     inkscape:pageopacity="0"
     inkscape:pageshadow="2"
     inkscape:window-width="1680"
     inkscape:window-height="997"
     id="namedview3333"
     showgrid="false"
     inkscape:zoom="1.888"
     inkscape:cx="-223.29707"
     inkscape:cy="106.60481"
     inkscape:window-x="0"
     inkscape:window-y="31"
     inkscape:window-maximized="1"
     inkscape:current-layer="svg3165" /><g
     id="g3277"><path
       d="M92.674,47.09L49.451,1.81C48.794,1.12,47.885,0.73,46.934,0.73c-0.952,0-1.861,0.39-2.517,1.079L1.192,47.09   c-0.962,1.008-1.231,2.506-0.684,3.785C1.057,52.156,2.317,53,3.711,53H19v36.52c0,1.922,1.794,3.48,3.717,3.48h8.771   C33.41,93,36,91.441,36,89.52V52.972v-1.739c0-6.729,4.771-12.182,11.5-12.182S59,44.504,59,51.232v1.739V89.52   c0,1.922,1.893,3.48,3.813,3.48h8.772C73.508,93,76,91.441,76,89.52V53h14.157c1.392,0,2.652-0.844,3.2-2.125   C93.904,49.596,93.636,48.098,92.674,47.09z"
       id="path3327" /></g></svg>
