<?xml version="1.0" encoding="UTF-8" standalone="no"?>
<svg fill="#d13505"
   xmlns:dc="http://purl.org/dc/elements/1.1/"
   xmlns:cc="http://creativecommons.org/ns#"
   xmlns:rdf="http://www.w3.org/1999/02/22-rdf-syntax-ns#"
   xmlns:svg="http://www.w3.org/2000/svg"
   xmlns="http://www.w3.org/2000/svg"
   xmlns:sodipodi="http://sodipodi.sourceforge.net/DTD/sodipodi-0.dtd"
   xmlns:inkscape="http://www.inkscape.org/namespaces/inkscape"
   version="1.1"
   x="0px"
   y="0px"
   viewBox="0 0 100 125"
   enable-background="new 0 0 100 100"
   xml:space="preserve"
   id="svg2"
   inkscape:version="0.48.5 r10040"
   width="100%"
   height="100%"
   sodipodi:docname="noun_77216_cc.svg"><metadata
     id="metadata14"><rdf:RDF><cc:Work
         rdf:about=""><dc:format>image/svg+xml</dc:format><dc:type
           rdf:resource="http://purl.org/dc/dcmitype/StillImage" /></cc:Work></rdf:RDF></metadata><defs
     id="defs12" /><sodipodi:namedview
     pagecolor="#ffffff"
     bordercolor="#666666"
     borderopacity="1"
     objecttolerance="10"
     gridtolerance="10"
     guidetolerance="10"
     inkscape:pageopacity="0"
     inkscape:pageshadow="2"
     inkscape:window-width="640"
     inkscape:window-height="480"
     id="namedview10"
     showgrid="false"
     inkscape:zoom="1.888"
     inkscape:cx="29.669301"
     inkscape:cy="62.5"
     inkscape:window-x="0"
     inkscape:window-y="31"
     inkscape:window-maximized="0"
     inkscape:current-layer="svg2" /><path
     d="M94.99,31.341C94.99,16.793,83.065,5,68.352,5C61.232,5,54.779,7.779,50,12.28C45.222,7.779,38.769,5,31.648,5  C16.937,5,5.01,16.793,5.01,31.341c0,0-0.836,13.685,13.053,32.052C25.29,72.95,50,95,50,95s24.711-22.05,31.938-31.606  C95.827,45.026,94.99,31.341,94.99,31.341z M54.737,70.27c0,0-2.988,1.891-5.958,4.542c-2.97,2.656-5.085,5.327-5.085,5.327  s-0.096-3.562-0.735-7.805c-0.441-2.92-1.719-6.594-1.719-6.594l5.366,4.251l5.515-23.378l-16.264,5.26l9.357-33.536h13.041  L48.93,39.369l15.216-5.177L48.083,70.27H54.737z"
     id="path4" /></svg>
