<?xml version="1.0" encoding="UTF-8" standalone="no"?>
<svg fill="#d13505"
   xmlns:dc="http://purl.org/dc/elements/1.1/"
   xmlns:cc="http://creativecommons.org/ns#"
   xmlns:rdf="http://www.w3.org/1999/02/22-rdf-syntax-ns#"
   xmlns:svg="http://www.w3.org/2000/svg"
   xmlns="http://www.w3.org/2000/svg"
   xmlns:sodipodi="http://sodipodi.sourceforge.net/DTD/sodipodi-0.dtd"
   xmlns:inkscape="http://www.inkscape.org/namespaces/inkscape"
   version="1.1"
   x="0px"
   y="0px"
   viewBox="0 0 100 125"
   enable-background="new 0 0 100 100"
   xml:space="preserve"
   id="svg2"
   inkscape:version="0.48.5 r10040"
   width="100%"
   height="100%"
   sodipodi:docname="noun_55296_cc.svg"><metadata
     id="metadata30"><rdf:RDF><cc:Work
         rdf:about=""><dc:format>image/svg+xml</dc:format><dc:type
           rdf:resource="http://purl.org/dc/dcmitype/StillImage" /></cc:Work></rdf:RDF></metadata><defs
     id="defs28" /><sodipodi:namedview
     pagecolor="#ffffff"
     bordercolor="#666666"
     borderopacity="1"
     objecttolerance="10"
     gridtolerance="10"
     guidetolerance="10"
     inkscape:pageopacity="0"
     inkscape:pageshadow="2"
     inkscape:window-width="640"
     inkscape:window-height="480"
     id="namedview26"
     showgrid="false"
     inkscape:zoom="1.888"
     inkscape:cx="50"
     inkscape:cy="62.5"
     inkscape:window-x="0"
     inkscape:window-y="31"
     inkscape:window-maximized="0"
     inkscape:current-layer="svg2" /><g
     id="g4"><path
       d="M81.987,75.496c-3.327,0.698-6.843,0.645-10.08-0.452c-2.406-0.754-4.767-1.838-6.624-3.578   c-0.308-0.331-1.034-0.647-0.764,0.11c0.44,1.973,1.157,3.889,2.073,5.689c1.114,1.901,2.674,3.569,4.553,4.731   c1.692,0.885,3.579,1.328,5.429,1.759c2.61,0.204,5.232,0.139,7.85,0.184v-4.413c-0.019-1.441,0.012-2.892-0.171-4.324   C83.606,75.056,82.724,75.422,81.987,75.496z"
       id="path6" /><path
       d="M73.763,73.062c2.139,0.376,4.389,0.478,6.522,0.031h-0.001c1.427-0.491,2.802-1.193,4.009-2.1   c0.013-0.681-1.579-0.761-2.239-1.104c-2.561-0.726-5.026-1.878-7.03-3.655c-2.389-1.942-4.354-4.465-7.123-5.902   c-1.969-0.933-4.223-0.762-6.337-0.676c-1.277,0.108-2.449,0.75-3.455,1.512c-0.332,0.895,1.48,0.898,2.061,1.34   c2.966,1.368,5.057,3.989,7.187,6.371C68.977,70.906,71.183,72.537,73.763,73.062z"
       id="path8" /><path
       d="M70.253,50.205c-1.829-1.693-3.577-3.494-4.998-5.549c-0.31-0.613-1.158-1.028-1.096,0.005   c-0.076,2.385,0.546,4.741,1.276,6.993c1.414,3.91,4.208,7.19,7.407,9.781c1.754,1.451,3.797,2.49,5.935,3.244   c1.796,0.662,3.577,1.388,5.433,1.869c0.271-1.573,0.171-3.224,0.214-4.82v0v-4.841c-1.416,0.066-2.83-0.137-4.16-0.637   C76.559,54.953,73.083,52.941,70.253,50.205z"
       id="path10" /><path
       d="M62.662,30.84c1.531,1.15,2.442,2.897,2.966,4.704c0.996,3.496,1.881,7.107,3.888,10.194   c2.031,3.266,5.03,6.238,8.905,7.073c1.799,0.313,3.723,0.336,5.488-0.163c0.959-0.462-1.013-0.961-1.301-1.376   c-4.289-2.94-6.876-7.639-8.963-12.271c-1.007-2.313-2.012-4.763-4.04-6.386c-1.628-1.544-3.779-2.736-6.091-2.53   C62.914,30.053,61.644,30.133,62.662,30.84z"
       id="path12" /><path
       d="M77.693,31.109c-0.713-1.433-1.315-2.918-1.804-4.441c-0.138-0.805-0.694-0.42-0.723,0.18   c-0.552,2.37-0.681,4.833-0.525,7.257c0.192,3.001,1.33,5.917,3.209,8.265c1.617,2.029,3.526,3.834,5.635,5.347   c0.611,0.636,0.923,0.114,0.841-0.567c0.08-1.215,0.095-2.433,0.098-3.65v0v-4.56c-1.25-0.789-2.531-1.56-3.537-2.665   C79.466,34.806,78.624,32.901,77.693,31.109z"
       id="path14" /><path
       d="M36.991,67.24c-2.625-5.357-4.118-11.176-6.207-16.751c-1.533-4.706-3.308-9.361-4.394-14.193   c1.089-2.921,6.646,1.448,5.59-2.378c-1.321-6.2-2.601-12.405-3.88-18.609c-4.883-0.322-9.577,1.936-12.987,5.327   c0.105,6.833-0.258,13.692,0.408,20.5c2.428,14.043,7.637,28.241,18.008,38.395c2.196,2.213,4.68,4.102,7.101,6.055   c2.347-0.21,4.657-0.669,6.939-1.247l-0.001,0.005c3.023-0.911,6.136-1.888,8.77-3.654c-4.347-5.34-9.039-10.419-13.802-15.396   C40.719,65.073,38.383,70.727,36.991,67.24z"
       id="path16" /><path
       d="M54.43,69.054c-1.997-2.257-4.065-4.454-5.918-6.832c-0.957-1.245-2.687-0.463-3.658,0.336   c-1.032,0.641-1.73,1.879-0.44,2.659c4.292,4.788,8.63,9.542,13.129,14.137c0.407,0.421,1.112-0.318,1.527-0.461v0   c1.216-0.573,2.213-2.18,1.102-3.345C58.376,73.283,56.302,71.255,54.43,69.054z"
       id="path18" /><path
       d="M32.229,29.335c0.387,1.675,0.641,3.392,1.227,5.013c0.322,0.879,1.433,0.573,2.144,0.483   c0.351-0.072,0.699-0.171,1.021-0.332c0.574-0.415,1.383-0.905,1.348-1.713c-0.202-1.73-0.726-3.406-1.087-5.107   c-0.933-3.859-1.773-7.745-2.887-11.558c-0.206-0.675-0.432-1.573-1.3-1.587c-1.024-0.143-2.141-0.237-3.117,0.165   c-0.379,0.682,0.003,1.566,0.062,2.324C30.414,21.146,31.379,25.229,32.229,29.335z"
       id="path20" /></g></svg>
