<?xml  version="1.0" encoding="UTF-8" standalone="no"?>
<svg fill="#4f3e6a"
   xmlns:dc="http://purl.org/dc/elements/1.1/"
   xmlns:cc="http://creativecommons.org/ns#"
   xmlns:rdf="http://www.w3.org/1999/02/22-rdf-syntax-ns#"
   xmlns:svg="http://www.w3.org/2000/svg"
   xmlns="http://www.w3.org/2000/svg"
   xmlns:sodipodi="http://sodipodi.sourceforge.net/DTD/sodipodi-0.dtd"
   xmlns:inkscape="http://www.inkscape.org/namespaces/inkscape"
   version="1.1"
   x="0px"
   y="0px"
   viewBox="0 0 100 125"
   enable-background="new 0 0 100 100"
   xml:space="preserve"
   id="svg2"
   inkscape:version="0.48.5 r10040"
   width="100%"
   height="100%"
   sodipodi:docname="noun_186284_cc.svg"><metadata
     id="metadata80"><rdf:RDF><cc:Work
         rdf:about=""><dc:format>image/svg+xml</dc:format><dc:type
           rdf:resource="http://purl.org/dc/dcmitype/StillImage" /></cc:Work></rdf:RDF></metadata><defs
     id="defs78" /><sodipodi:namedview
     pagecolor="#ffffff"
     bordercolor="#666666"
     borderopacity="1"
     objecttolerance="10"
     gridtolerance="10"
     guidetolerance="10"
     inkscape:pageopacity="0"
     inkscape:pageshadow="2"
     inkscape:window-width="640"
     inkscape:window-height="480"
     id="namedview76"
     showgrid="false"
     inkscape:zoom="1.888"
     inkscape:cx="50"
     inkscape:cy="62.5"
     inkscape:window-x="0"
     inkscape:window-y="31"
     inkscape:window-maximized="0"
     inkscape:current-layer="svg2" /><g
     id="g4"><path
       fill="#000000"
       d="M91.8,93.6H31.3c-0.8,0-1.5-0.7-1.5-1.5V8.4c0-0.8,0.7-1.5,1.5-1.5h60.5c0.8,0,1.5,0.7,1.5,1.5v83.7   C93.2,92.9,92.6,93.6,91.8,93.6z M32.8,90.6h57.5V9.9H32.8V90.6z"
       id="path6" /></g><g
     id="g8"><path
       fill="#000000"
       d="M21.5,93.6H6.9c-0.8,0-1.5-0.7-1.5-1.5V8.4c0-0.8,0.7-1.5,1.5-1.5h14.6c0.8,0,1.5,0.7,1.5,1.5v83.7   C23,92.9,22.4,93.6,21.5,93.6z M8.4,90.6H20V9.9H8.4V90.6z"
       id="path10" /></g><g
     id="g12"><path
       fill="#000000"
       d="M80.1,33.3H42.9c-0.8,0-1.5-0.7-1.5-1.5V19.5c0-0.8,0.7-1.5,1.5-1.5h37.2c0.8,0,1.5,0.7,1.5,1.5v12.2   C81.6,32.6,81,33.3,80.1,33.3z M44.4,30.3h34.2V21H44.4V30.3z"
       id="path14" /></g><g
     id="g16"><g
       id="g18"><circle
         cx="49.1"
         cy="46.3"
         r="3.7"
         id="circle20" /><path
         d="M49.1,51.5c-2.9,0-5.2-2.3-5.2-5.2c0-2.9,2.3-5.2,5.2-5.2s5.2,2.3,5.2,5.2C54.3,49.2,51.9,51.5,49.1,51.5z M49.1,44.1    c-1.2,0-2.2,1-2.2,2.2c0,1.2,1,2.2,2.2,2.2s2.2-1,2.2-2.2C51.3,45.1,50.3,44.1,49.1,44.1z"
         id="path22" /></g><g
       id="g24"><circle
         cx="61.5"
         cy="46.3"
         r="3.7"
         id="circle26" /><path
         d="M61.5,51.5c-2.9,0-5.2-2.3-5.2-5.2c0-2.9,2.3-5.2,5.2-5.2c2.9,0,5.2,2.3,5.2,5.2C66.7,49.2,64.4,51.5,61.5,51.5z     M61.5,44.1c-1.2,0-2.2,1-2.2,2.2c0,1.2,1,2.2,2.2,2.2c1.2,0,2.2-1,2.2-2.2C63.7,45.1,62.7,44.1,61.5,44.1z"
         id="path28" /></g><g
       id="g30"><circle
         cx="74"
         cy="46.3"
         r="3.7"
         id="circle32" /><path
         d="M74,51.5c-2.9,0-5.2-2.3-5.2-5.2c0-2.9,2.3-5.2,5.2-5.2s5.2,2.3,5.2,5.2C79.2,49.2,76.8,51.5,74,51.5z M74,44.1    c-1.2,0-2.2,1-2.2,2.2c0,1.2,1,2.2,2.2,2.2s2.2-1,2.2-2.2C76.2,45.1,75.2,44.1,74,44.1z"
         id="path34" /></g><g
       id="g36"><circle
         cx="49.1"
         cy="58.8"
         r="3.7"
         id="circle38" /><path
         d="M49.1,64c-2.9,0-5.2-2.3-5.2-5.2s2.3-5.2,5.2-5.2s5.2,2.3,5.2,5.2S51.9,64,49.1,64z M49.1,56.6c-1.2,0-2.2,1-2.2,2.2    s1,2.2,2.2,2.2s2.2-1,2.2-2.2S50.3,56.6,49.1,56.6z"
         id="path40" /></g><g
       id="g42"><circle
         cx="61.5"
         cy="58.8"
         r="3.7"
         id="circle44" /><path
         d="M61.5,64c-2.9,0-5.2-2.3-5.2-5.2s2.3-5.2,5.2-5.2c2.9,0,5.2,2.3,5.2,5.2S64.4,64,61.5,64z M61.5,56.6    c-1.2,0-2.2,1-2.2,2.2s1,2.2,2.2,2.2c1.2,0,2.2-1,2.2-2.2S62.7,56.6,61.5,56.6z"
         id="path46" /></g><g
       id="g48"><circle
         cx="74"
         cy="58.8"
         r="3.7"
         id="circle50" /><path
         d="M74,64c-2.9,0-5.2-2.3-5.2-5.2s2.3-5.2,5.2-5.2s5.2,2.3,5.2,5.2S76.8,64,74,64z M74,56.6c-1.2,0-2.2,1-2.2,2.2    s1,2.2,2.2,2.2s2.2-1,2.2-2.2S75.2,56.6,74,56.6z"
         id="path52" /></g><g
       id="g54"><circle
         cx="49.1"
         cy="71.2"
         r="3.7"
         id="circle56" /><path
         d="M49.1,76.4c-2.9,0-5.2-2.3-5.2-5.2c0-2.9,2.3-5.2,5.2-5.2s5.2,2.3,5.2,5.2C54.3,74.1,51.9,76.4,49.1,76.4z M49.1,69    c-1.2,0-2.2,1-2.2,2.2c0,1.2,1,2.2,2.2,2.2s2.2-1,2.2-2.2C51.3,70,50.3,69,49.1,69z"
         id="path58" /></g><g
       id="g60"><circle
         cx="61.5"
         cy="71.2"
         r="3.7"
         id="circle62" /><path
         d="M61.5,76.4c-2.9,0-5.2-2.3-5.2-5.2c0-2.9,2.3-5.2,5.2-5.2c2.9,0,5.2,2.3,5.2,5.2C66.7,74.1,64.4,76.4,61.5,76.4z M61.5,69    c-1.2,0-2.2,1-2.2,2.2c0,1.2,1,2.2,2.2,2.2c1.2,0,2.2-1,2.2-2.2C63.7,70,62.7,69,61.5,69z"
         id="path64" /></g><g
       id="g66"><circle
         cx="74"
         cy="71.2"
         r="3.7"
         id="circle68" /><path
         d="M74,76.4c-2.9,0-5.2-2.3-5.2-5.2c0-2.9,2.3-5.2,5.2-5.2s5.2,2.3,5.2,5.2C79.2,74.1,76.8,76.4,74,76.4z M74,69    c-1.2,0-2.2,1-2.2,2.2c0,1.2,1,2.2,2.2,2.2s2.2-1,2.2-2.2C76.2,70,75.2,69,74,69z"
         id="path70" /></g></g></svg>
