<?xml version="1.0" encoding="UTF-8" standalone="no"?>
<svg fill="#9e2970"
   xmlns:dc="http://purl.org/dc/elements/1.1/"
   xmlns:cc="http://creativecommons.org/ns#"
   xmlns:rdf="http://www.w3.org/1999/02/22-rdf-syntax-ns#"
   xmlns:svg="http://www.w3.org/2000/svg"
   xmlns="http://www.w3.org/2000/svg"
   xmlns:sodipodi="http://sodipodi.sourceforge.net/DTD/sodipodi-0.dtd"
   xmlns:inkscape="http://www.inkscape.org/namespaces/inkscape"
   version="1.1"
   viewBox="0 0 100 125"
   x="0px"
   y="0px"
   id="svg2"
   inkscape:version="0.48.5 r10040"
   width="100%"
   height="100%"
   sodipodi:docname="noun_83325_cc.svg">
  <metadata
     id="metadata14">
    <rdf:RDF>
      <cc:Work
         rdf:about="">
        <dc:format>image/svg+xml</dc:format>
        <dc:type
           rdf:resource="http://purl.org/dc/dcmitype/StillImage" />
      </cc:Work>
    </rdf:RDF>
  </metadata>
  <defs
     id="defs12" />
  <sodipodi:namedview
     pagecolor="#ffffff"
     bordercolor="#666666"
     borderopacity="1"
     objecttolerance="10"
     gridtolerance="10"
     guidetolerance="10"
     inkscape:pageopacity="0"
     inkscape:pageshadow="2"
     inkscape:window-width="640"
     inkscape:window-height="480"
     id="namedview10"
     showgrid="false"
     inkscape:zoom="1.888"
     inkscape:cx="50"
     inkscape:cy="62.5"
     inkscape:window-x="0"
     inkscape:window-y="31"
     inkscape:window-maximized="0"
     inkscape:current-layer="svg2" />
  <path
     style="color:#000000;enable-background:accumulate;"
     d="M63.25,5l-20.031,20.031,1.719,1.688-0.563,0.562-1.719-1.719-37.656,37.688c3.5294,3.529,3.5294,8.814,0,12.344l0.875,0.875c0.4873-0.488,1.294-0.488,1.7812,0,0.4874,0.487,0.4874,1.294,0,1.781l0.875,0.875c0.4874-0.487,1.2628-0.487,1.7498,0,0.488,0.487,0.488,1.263,0,1.75l0.907,0.875c0.487-0.487,1.262-0.487,1.75,0,0.487,0.487,0.487,1.294,0,1.781l0.874,0.875c0.488-0.487,1.294-0.487,1.782,0,0.487,0.488,0.487,1.294,0,1.782l0.875,0.874c0.487-0.487,1.294-0.487,1.781,0,0.487,0.488,0.487,1.263,0,1.75l0.875,0.907c0.487-0.488,1.263-0.488,1.75,0,0.487,0.487,0.487,1.262,0,1.75l0.875,0.875c0.487-0.488,1.294-0.488,1.781,0,0.488,0.487,0.488,1.294,0,1.781l0.875,0.875c3.53-3.529,8.814-3.529,12.344,0l37.688-37.656-1.532-1.532,0.563-0.531,1.5,1.5,20.031-20.031c-3.529-3.529-3.529-8.814,0-12.344l-0.875-0.875c-0.487,0.488-1.294,0.488-1.781,0-0.488-0.487-0.488-1.294,0-1.781l-0.875-0.875c-0.488,0.487-1.263,0.487-1.75,0-0.488-0.487-0.488-1.263,0-1.75l-0.907-0.875c-0.487,0.487-1.262,0.487-1.75,0-0.487-0.487-0.487-1.294,0-1.781l-0.874-0.875c-0.488,0.487-1.294,0.487-1.782,0-0.487-0.488-0.487-1.294,0-1.782l-0.875-0.874c-0.487,0.487-1.294,0.487-1.781,0-0.487-0.488-0.487-1.263,0-1.75l-0.875-0.907c-0.487,0.488-1.263,0.488-1.75,0-0.487-0.4871-0.487-1.2624,0-1.7498l-0.875-0.875c-0.487,0.4874-1.294,0.4874-1.781,0-0.488-0.4873-0.488-1.2939,0-1.7812l-0.875-0.875c-3.53,3.5294-8.814,3.5294-12.344,0zm-17.188,22.844l2.282,2.312-0.563,0.532-2.281-2.282,0.562-0.562zm3.438,3.468l2.25,2.25-0.531,0.563-2.281-2.281,0.562-0.532zm3.438,3.407l2.281,2.281-0.563,0.562-2.281-2.281,0.563-0.562zm3.406,3.437l2.281,2.282-0.531,0.531-2.313-2.281,0.563-0.532zm3.406,3.406l2.312,2.282-0.562,0.562-2.281-2.281,0.531-0.563zm-24.781,3.094c1.12,0.003,2.208,0.424,3,1.219l11.25,11.25c1.543,1.538,1.601,3.997,0.593,5.406l9.094,1.844-2.062,2.063-6.438-1.219-3.562,3.562-3.563,3.563,1.219,6.406-2.094,2.094-1.812-9.063c-1.408,1.007-3.899,0.949-5.438-0.593l-11.25-11.25c-1.588-1.585-1.698-4.4,0.125-6.219l3.907-3.875,3.874-3.875c0.905-0.906,2.036-1.316,3.157-1.313zm28.219,0.313l2.281,2.312-0.563,0.531-2.281-2.281,0.563-0.562zm-35.313,1.312c0.313-0.006,0.632,0.101,0.875,0.344,0.479,0.479,0.479,1.268,0,1.75-0.486,0.482-1.275,0.451-1.75-0.031-0.489-0.483-0.489-1.209,0-1.688,0.238-0.242,0.562-0.368,0.875-0.375zm38.719,2.125l2.281,2.282-0.531,0.562-2.282-2.312,0.532-0.532zm-41.032,0.156c0.314-0.006,0.635,0.131,0.876,0.376,0.482,0.474,0.482,1.264,0,1.75-0.482,0.477-1.302,0.477-1.782,0-0.484-0.487-0.453-1.245,0.032-1.719,0.239-0.245,0.561-0.4,0.874-0.407zm10.938,0c-0.556-0.023-1.141,0.174-1.656,0.688l-3.782,3.781-3.75,3.75c-1.026,1.03-0.836,2.339,0,3.188l2.032,2.031c0.976,0.98,2.249,0.834,3.125-0.031l3.781-3.781,3.75-3.75c0.867-0.877,1.012-2.182,0.031-3.157l-2.031-2.031c-0.424-0.419-0.944-0.664-1.5-0.688zm-5.906,0.188c-0.187,0.007-0.36,0.082-0.5,0.219l-1.532,1.531-1.531,1.531c-0.273,0.281-0.281,0.749,0,1.031l0.907,0.876c0.281,0.28,0.711,0.29,1,0l1.531-1.532,1.531-1.531c0.292-0.29,0.312-0.719,0.031-1l-0.906-0.906c-0.141-0.141-0.344-0.226-0.531-0.219zm39.437,3.062l2.281,2.282-0.562,0.562-2.281-2.281,0.562-0.563zm-23.937,6.438c-0.5-0.002-0.994,0.177-1.375,0.562-0.764,0.757-0.764,2.022,0,2.782,0.762,0.766,2.015,0.785,2.781,0.031,0.761-0.773,0.729-2.044-0.031-2.813-0.383-0.378-0.876-0.56-1.375-0.562zm-7.875,7.875c-0.5-0.002-0.994,0.177-1.375,0.563-0.763,0.755-0.764,1.989,0,2.75,0.762,0.766,2.016,0.784,2.781,0.031,0.761-0.773,0.73-2.014-0.031-2.781-0.383-0.38-0.876-0.561-1.375-0.563z"
     id="path4" />
</svg>
