<svg fill="#e8b130" xmlns="http://www.w3.org/2000/svg" xmlns:xlink="http://www.w3.org/1999/xlink" version="1.1" x="0px" y="0px" viewBox="0 0 48 60" enable-background="new 0 0 48 48" xml:space="preserve"><g><path d="M43.677,45.061h-3.849V0.979C39.828,0.438,39.391,0,38.849,0H9.151C8.609,0,8.172,0.438,8.172,0.979v44.081H4.323   c-0.812,0-1.47,0.658-1.47,1.47S3.512,48,4.323,48h39.354c0.812,0,1.47-0.658,1.47-1.47S44.488,45.061,43.677,45.061z    M15.191,6.886h17.617v15.89H15.191V6.886z M33.521,31.92h-3.995c-0.541,0-0.979-0.438-0.979-0.979s0.438-0.98,0.979-0.98h3.995   c0.541,0,0.979,0.439,0.979,0.98S34.063,31.92,33.521,31.92z"/></g></svg>
