<?xml version="1.0" encoding="UTF-8" standalone="no"?>
<svg fill="#947f64"
   xmlns:dc="http://purl.org/dc/elements/1.1/"
   xmlns:cc="http://creativecommons.org/ns#"
   xmlns:rdf="http://www.w3.org/1999/02/22-rdf-syntax-ns#"
   xmlns:svg="http://www.w3.org/2000/svg"
   xmlns="http://www.w3.org/2000/svg"
   xmlns:sodipodi="http://sodipodi.sourceforge.net/DTD/sodipodi-0.dtd"
   xmlns:inkscape="http://www.inkscape.org/namespaces/inkscape"
   version="1.1"
   x="0px"
   y="0px"
   viewBox="0 0 24 30"
   enable-background="new 0 0 24 24"
   xml:space="preserve"
   id="svg2"
   inkscape:version="0.48.5 r10040"
   width="100%"
   height="100%"
   sodipodi:docname="ic_marker_recycling.svg"><metadata
     id="metadata20"><rdf:RDF><cc:Work
         rdf:about=""><dc:format>image/svg+xml</dc:format><dc:type
           rdf:resource="http://purl.org/dc/dcmitype/StillImage" /></cc:Work></rdf:RDF></metadata><defs
     id="defs18" /><sodipodi:namedview
     pagecolor="#ffffff"
     bordercolor="#666666"
     borderopacity="1"
     objecttolerance="10"
     gridtolerance="10"
     guidetolerance="10"
     inkscape:pageopacity="0"
     inkscape:pageshadow="2"
     inkscape:window-width="640"
     inkscape:window-height="480"
     id="namedview16"
     showgrid="false"
     inkscape:zoom="7.8666667"
     inkscape:cx="411.48001"
     inkscape:cy="-5.3389831"
     inkscape:window-x="0"
     inkscape:window-y="31"
     inkscape:window-maximized="0"
     inkscape:current-layer="svg2" /><g
     id="g4"><path
       d="M19.2,2.4H15V1.8C15,0.808,14.191,0,13.2,0h-2.4C9.807,0,9,0.808,9,1.8V2.4H4.8C3.807,2.4,3,3.207,3,4.2v1.2   c0,0.509,0.227,0.956,0.567,1.283h16.865C20.773,6.356,21,5.909,21,5.4V4.2C21,3.207,20.191,2.4,19.2,2.4z M13.8,2.4h-3.6V1.8   c0-0.33,0.27-0.6,0.6-0.6h2.4c0.33,0,0.6,0.27,0.6,0.6V2.4z"
       id="path6" /><g
       id="g8"><path
         d="M4.2,7.484V22.2C4.2,23.192,5.006,24,6,24h12c0.991,0,1.8-0.808,1.8-1.8V7.484H4.2z M12.004,12.549l-1.132,1.817    l-0.062,0.102l-0.024,0.041l-0.16,0.258c-0.137,0.221-0.432,0.279-0.65,0.142l-0.718-0.449c-0.218-0.138-0.281-0.434-0.142-0.651    c0.55-0.854,1.007-1.61,1.521-2.445c-0.001,0-0.002,0-0.002,0l0.1-0.159c0.061-0.101,0.12-0.197,0.184-0.301    c0.22-0.227,0.574-0.373,0.975-0.373c0.402,0,0.757,0.147,0.975,0.375h0.001l1.382,2.097l0.681-0.448l-0.521,2.293l-2.315-0.487    l0.769-0.506 M11.565,19.746c-0.009,0.258-0.234,0.46-0.493,0.447c-1.011-0.048-1.782-0.065-2.729-0.093h0.002l-0.088-0.002    c-0.146-0.004-0.296-0.008-0.454-0.013c-0.305-0.077-0.61-0.311-0.812-0.657c-0.2-0.348-0.25-0.729-0.163-1.032v-0.002    l1.125-2.243l-0.729-0.366l2.249-0.694l0.734,2.25l-0.821-0.412l-0.7,1.395l1.992,0.069l0.119,0.004l0.047,0.002l0.303,0.009    c0.26,0.008,0.459,0.234,0.448,0.494L11.565,19.746z M16.954,19.565c-0.224,0.333-0.545,0.546-0.855,0.601l-0.001,0.001    l-2.509-0.027l-0.009,0.815l-1.611-1.715l1.699-1.646l-0.011,0.919l1.562,0.017l-0.979-2.163l-0.049-0.108l-0.02-0.043    l-0.124-0.276c-0.106-0.237,0.009-0.515,0.246-0.619l0.772-0.343c0.237-0.104,0.517,0.008,0.619,0.247    c0.405,0.939,0.849,1.891,1.28,2.836c0-0.001,0.002-0.001,0.002-0.002l0.098,0.22c0.041,0.091,0.083,0.182,0.123,0.272    C17.255,18.857,17.179,19.232,16.954,19.565z"
         id="path10" /></g></g></svg>
