<?xml version="1.0" encoding="UTF-8" standalone="no"?>
<svg fill="#d1336e"
   xmlns:dc="http://purl.org/dc/elements/1.1/"
   xmlns:cc="http://creativecommons.org/ns#"
   xmlns:rdf="http://www.w3.org/1999/02/22-rdf-syntax-ns#"
   xmlns:svg="http://www.w3.org/2000/svg"
   xmlns="http://www.w3.org/2000/svg"
   xmlns:sodipodi="http://sodipodi.sourceforge.net/DTD/sodipodi-0.dtd"
   xmlns:inkscape="http://www.inkscape.org/namespaces/inkscape"
   version="1.1"
   x="0px"
   y="0px"
   viewBox="0 0 100 125"
   enable-background="new 0 0 100 100"
   xml:space="preserve"
   id="svg3151"
   inkscape:version="0.48.5 r10040"
   width="100%"
   height="100%"
   sodipodi:docname="noun_7190_cc.svg"><metadata
     id="metadata3163"><rdf:RDF><cc:Work
         rdf:about=""><dc:format>image/svg+xml</dc:format><dc:type
           rdf:resource="http://purl.org/dc/dcmitype/StillImage" /></cc:Work></rdf:RDF></metadata><defs
     id="defs3161" /><sodipodi:namedview
     pagecolor="#ffffff"
     bordercolor="#666666"
     borderopacity="1"
     objecttolerance="10"
     gridtolerance="10"
     guidetolerance="10"
     inkscape:pageopacity="0"
     inkscape:pageshadow="2"
     inkscape:window-width="640"
     inkscape:window-height="480"
     id="namedview3159"
     showgrid="false"
     inkscape:zoom="1.888"
     inkscape:cx="50"
     inkscape:cy="62.5"
     inkscape:window-x="0"
     inkscape:window-y="31"
     inkscape:window-maximized="0"
     inkscape:current-layer="svg3151" /><path
     d="M94,24h-2V14c0-3.3-2.415-7.208-5.366-8.683C86.634,5.317,76,0,50,0S13.367,5.317,13.367,5.317  C10.415,6.792,8,10.7,8,14v10H6c-3.3,0-6,2.7-6,6v6c0,3.3,2.7,6,6,6h2v41c0,2.599,1.677,4.818,4,5.647V92c0,4.4,3.6,8,8,8s8-3.6,8-8  v-3h44v3c0,4.4,3.6,8,8,8s8-3.6,8-8v-3.353c2.323-0.829,4-3.049,4-5.647V42h2c3.3,0,6-2.7,6-6v-6C100,26.7,97.3,24,94,24z M30,10  c0-1.1,0.9-2,2-2h36c1.1,0,2,0.9,2,2v4c0,1.1-0.9,2-2,2H32c-1.1,0-2-0.9-2-2V10z M21,81c-2.762,0-5-2.24-5-5s2.238-5,5-5  c2.761,0,5,2.24,5,5S23.761,81,21,81z M79,81c-2.762,0-5-2.24-5-5s2.238-5,5-5s5,2.24,5,5S81.762,81,79,81z M84,58c0,1.1-0.9,2-2,2  H18c-1.1,0-2-0.9-2-2V26c0-1.1,0.9-2,2-2h64c1.1,0,2,0.9,2,2V58z"
     id="path3153" /></svg>
