<?xml version="1.0" encoding="UTF-8" standalone="no"?>
<svg
   xmlns:dc="http://purl.org/dc/elements/1.1/"
   xmlns:cc="http://creativecommons.org/ns#"
   xmlns:rdf="http://www.w3.org/1999/02/22-rdf-syntax-ns#"
   xmlns:svg="http://www.w3.org/2000/svg"
   xmlns="http://www.w3.org/2000/svg"
   xmlns:sodipodi="http://sodipodi.sourceforge.net/DTD/sodipodi-0.dtd"
   xmlns:inkscape="http://www.inkscape.org/namespaces/inkscape"
   version="1.1"
   x="0px"
   y="0px"
   viewBox="0 0 100 125"
   enable-background="new 0 0 100 100"
   xml:space="preserve"
   id="svg3861"
   inkscape:version="0.48.5 r10040"
   width="100%"
   height="100%"
   sodipodi:docname="noun_38916_cc.svg"><metadata
     id="metadata3875"><rdf:RDF><cc:Work
         rdf:about=""><dc:format>image/svg+xml</dc:format><dc:type
           rdf:resource="http://purl.org/dc/dcmitype/StillImage" /></cc:Work></rdf:RDF></metadata><defs
     id="defs3873" /><sodipodi:namedview
     pagecolor="#ffffff"
     bordercolor="#666666"
     borderopacity="1"
     objecttolerance="10"
     gridtolerance="10"
     guidetolerance="10"
     inkscape:pageopacity="0"
     inkscape:pageshadow="2"
     inkscape:window-width="640"
     inkscape:window-height="480"
     id="namedview3871"
     showgrid="false"
     inkscape:zoom="1.888"
     inkscape:cx="50"
     inkscape:cy="62.5"
     inkscape:window-x="0"
     inkscape:window-y="31"
     inkscape:window-maximized="0"
     inkscape:current-layer="svg3861" /><g
     id="g3863"><path
       d="M78.416,77.412h-5.669L55.368,16.585l-0.472-1.653c-0.045-0.092-0.097-0.18-0.147-0.27C53.863,13.081,52.191,12,50.25,12   s-3.613,1.081-4.499,2.663c-0.05,0.089-0.102,0.178-0.147,0.27l-0.472,1.653L27.754,77.412h-5.669   c-2.859,0-5.178,2.318-5.178,5.177c0,2.859,2.319,5.178,5.178,5.178h56.331c2.859,0,5.178-2.318,5.178-5.178   C83.593,79.73,81.274,77.412,78.416,77.412z M47.374,22.956h5.751l4.062,14.214H43.313L47.374,22.956z M35.769,63.566l4.062-14.213   h20.84l4.062,14.213H35.769z"
       id="path3865" /></g></svg>