<?xml version="1.0" encoding="UTF-8" standalone="no"?>
<svg fill="#e8b130"
   xmlns:dc="http://purl.org/dc/elements/1.1/"
   xmlns:cc="http://creativecommons.org/ns#"
   xmlns:rdf="http://www.w3.org/1999/02/22-rdf-syntax-ns#"
   xmlns:svg="http://www.w3.org/2000/svg"
   xmlns="http://www.w3.org/2000/svg"
   xmlns:sodipodi="http://sodipodi.sourceforge.net/DTD/sodipodi-0.dtd"
   xmlns:inkscape="http://www.inkscape.org/namespaces/inkscape"
   version="1.1"
   x="0px"
   y="0px"
   viewBox="0 0 512 512"
   enable-background="new 0 0 100 100"
   xml:space="preserve"
   id="svg2"
   inkscape:version="0.91 r13725"
   sodipodi:docname="ic_marker_train_station.svg"
   width="512"
   height="512"
   inkscape:export-filename="/Users/sgrimault/Desktop/ic_marker_train_station.png"
   inkscape:export-xdpi="90"
   inkscape:export-ydpi="90"><metadata
     id="metadata20"><rdf:RDF><cc:Work
         rdf:about=""><dc:format>image/svg+xml</dc:format><dc:type
           rdf:resource="http://purl.org/dc/dcmitype/StillImage" /><dc:title /></cc:Work></rdf:RDF></metadata><defs
     id="defs18" /><sodipodi:namedview
     pagecolor="#ffffff"
     bordercolor="#666666"
     borderopacity="1"
     objecttolerance="10"
     gridtolerance="10"
     guidetolerance="10"
     inkscape:pageopacity="0"
     inkscape:pageshadow="2"
     inkscape:window-width="1206"
     inkscape:window-height="647"
     id="namedview16"
     showgrid="false"
     fit-margin-top="0"
     fit-margin-left="0"
     fit-margin-right="0"
     fit-margin-bottom="0"
     inkscape:zoom="0.36"
     inkscape:cx="42.414866"
     inkscape:cy="192.35167"
     inkscape:window-x="254"
     inkscape:window-y="149"
     inkscape:window-maximized="0"
     inkscape:current-layer="svg2" /><g
     id="g4"
     transform="matrix(6.6339392,0,0,6.6339392,-75.69696,-79.01393)"><path
       d="m 73.175,12.815 -46.352,0 c -4.285,0 -7.76,3.475 -7.76,7.762 l 0,37.51 c 0,4.286 3.475,7.76 7.76,7.76 l 46.353,0 c 4.287,0 7.76,-3.474 7.76,-7.76 l 0,-37.51 C 80.935,16.29 77.462,12.815 73.175,12.815 Z M 33.657,57.907 c -2.797,0 -5.066,-2.267 -5.066,-5.064 0,-2.797 2.268,-5.064 5.066,-5.064 2.797,0 5.064,2.267 5.064,5.064 0,2.797 -2.267,5.064 -5.064,5.064 z m 34.602,0 c -2.797,0 -5.065,-2.267 -5.065,-5.064 0,-2.797 2.268,-5.064 5.065,-5.064 2.797,0 5.066,2.267 5.066,5.064 -0.001,2.797 -2.269,5.064 -5.066,5.064 z m 7.656,-19 c 0,2.568 -2.088,4.657 -4.656,4.657 l -42.519,0 c -2.568,0 -4.657,-2.089 -4.657,-4.657 l 0,-15.96 c 0,-2.567 2.089,-4.657 4.657,-4.657 l 42.52,0 c 2.567,0 4.656,2.09 4.656,4.657 l 0,15.96 z"
       id="path6"
       inkscape:connector-curvature="0" /><path
       d="m 63.286,76.17 -26.574,0 -1.9,3.049 30.373,0 -1.899,-3.049 z m -3.495,-5.611 -19.582,0 -1.9,3.05 23.382,0 -1.9,-3.05 z m 6.777,0 -0.171,0 0.171,0.274 0,-0.274 z m 0.214,12.222 -33.565,0 -1.9,3.049 37.366,0 -1.901,-3.049 z"
       id="path8"
       inkscape:connector-curvature="0" /><path
       d="m 70.449,69.133 -8.06,0 11.249,19.052 8.06,0 -11.249,-19.052 z m -52.147,19.052 8.059,0 11.249,-19.052 -8.06,0 -11.248,19.052 z"
       id="path10"
       inkscape:connector-curvature="0" /></g></svg>
