<?xml version="1.0" encoding="UTF-8" standalone="no"?>
<svg fill="#d1336e"
   xmlns:dc="http://purl.org/dc/elements/1.1/"
   xmlns:cc="http://creativecommons.org/ns#"
   xmlns:rdf="http://www.w3.org/1999/02/22-rdf-syntax-ns#"
   xmlns:svg="http://www.w3.org/2000/svg"
   xmlns="http://www.w3.org/2000/svg"
   xmlns:sodipodi="http://sodipodi.sourceforge.net/DTD/sodipodi-0.dtd"
   xmlns:inkscape="http://www.inkscape.org/namespaces/inkscape"
   version="1.1"
   x="0px"
   y="0px"
   viewBox="0 0 100 125"
   enable-background="new 0 0 100 100"
   xml:space="preserve"
   id="svg3769"
   inkscape:version="0.48.5 r10040"
   width="100%"
   height="100%"
   sodipodi:docname="noun_19263_cc.svg"><metadata
     id="metadata3785"><rdf:RDF><cc:Work
         rdf:about=""><dc:format>image/svg+xml</dc:format><dc:type
           rdf:resource="http://purl.org/dc/dcmitype/StillImage" /></cc:Work></rdf:RDF></metadata><defs
     id="defs3783" /><sodipodi:namedview
     pagecolor="#ffffff"
     bordercolor="#666666"
     borderopacity="1"
     objecttolerance="10"
     gridtolerance="10"
     guidetolerance="10"
     inkscape:pageopacity="0"
     inkscape:pageshadow="2"
     inkscape:window-width="640"
     inkscape:window-height="480"
     id="namedview3781"
     showgrid="false"
     inkscape:zoom="1.888"
     inkscape:cx="0.075544006"
     inkscape:cy="62.5"
     inkscape:window-x="0"
     inkscape:window-y="31"
     inkscape:window-maximized="0"
     inkscape:current-layer="svg3769" /><path
     d="M94.50098,70.0918c2.1123-2.17383,3.25586-5.11035,3.16992-8.14063l-1.07617-37.84668  C96.39551,17.08594,90.64844,11.5,83.62695,11.5H72.80859H61.99023c-7.02148,0-12.76855,5.58594-12.96777,12.60449  l-1.07715,37.84668c-0.08594,3.03027,1.05762,5.9668,3.16992,8.14063c0.76172,0.7832,1.62891,1.43848,2.56445,1.96289L48.77148,90  h7.25781l1.86914-6.83301h29.82031L89.58789,90h7.25781l-4.9082-17.94531C92.87305,71.53027,93.73926,70.875,94.50098,70.0918z   M65.69141,17.13574c0-1.06201,0.86133-1.92285,1.92285-1.92285h10.5752c1.06152,0,1.92285,0.86084,1.92285,1.92285v0.1543  c0,1.06201-0.86133,1.92285-1.92285,1.92285h-10.5752c-1.06152,0-1.92285-0.86084-1.92285-1.92285V17.13574z M54.66406,26.76807  c0.08398-2.14648,1.84863-3.84326,3.99707-3.84326h28.85742c2.14844,0,3.91309,1.69678,3.99707,3.84375l0.51465,13.16406  c0.04297,1.08691-0.35938,2.14453-1.11328,2.92871s-1.79492,1.22754-2.88281,1.22754H58.14551  c-1.08887,0-2.12988-0.44336-2.88379-1.22754s-1.15625-1.8418-1.11328-2.9292L54.66406,26.76807z M53.51758,61.78711  c0-3.10352,2.51465-5.61719,5.61816-5.61719s5.61914,2.51367,5.61914,5.61719s-2.51563,5.61914-5.61914,5.61914  S53.51758,64.89063,53.51758,61.78711z M58.99219,79.16699l1.55176-5.6748h24.5293l1.55176,5.6748H58.99219z M86.48047,67.40625  c-3.10254,0-5.61914-2.51563-5.61914-5.61914s2.5166-5.61719,5.61914-5.61719c3.10352,0,5.61816,2.51367,5.61816,5.61719  S89.58398,67.40625,86.48047,67.40625z"
     id="path3771" /><circle
     cx="21.38281"
     cy="34.39502"
     r="4.41602"
     id="circle3773" /><path
     d="M41.75,70.75H25.83691V58.00488c1.11914-0.1123,1.99512-1.04688,1.99512-2.19434V43.22754  c0-2.41846-1.96094-4.37891-4.37891-4.37891h-4.32422c-2.41797,0-4.37891,1.96045-4.37891,4.37891v12.58301  c0,1.14844,0.87695,2.08203,1.99609,2.19434V70.75H1.5v4.75v1.25V90h33V76.75h7.25V70.75z"
     id="path3775" /></svg>
