<?xml version="1.0" encoding="UTF-8" standalone="no"?>
<svg fill="#4f3e6a" 
   xmlns:dc="http://purl.org/dc/elements/1.1/"
   xmlns:cc="http://creativecommons.org/ns#"
   xmlns:rdf="http://www.w3.org/1999/02/22-rdf-syntax-ns#"
   xmlns:svg="http://www.w3.org/2000/svg"
   xmlns="http://www.w3.org/2000/svg"
   xmlns:sodipodi="http://sodipodi.sourceforge.net/DTD/sodipodi-0.dtd"
   xmlns:inkscape="http://www.inkscape.org/namespaces/inkscape"
   version="1.1"
   x="0px"
   y="0px"
   viewBox="0 0 100 125"
   enable-background="new 0 0 100 100"
   xml:space="preserve"
   id="svg3125"
   inkscape:version="0.48.5 r10040"
   width="100%"
   height="100%"
   sodipodi:docname="noun_4901_cc.svg"><metadata
     id="metadata3149"><rdf:RDF><cc:Work
         rdf:about=""><dc:format>image/svg+xml</dc:format><dc:type
           rdf:resource="http://purl.org/dc/dcmitype/StillImage" /></cc:Work></rdf:RDF></metadata><defs
     id="defs3147" /><sodipodi:namedview
     pagecolor="#ffffff"
     bordercolor="#666666"
     borderopacity="1"
     objecttolerance="10"
     gridtolerance="10"
     guidetolerance="10"
     inkscape:pageopacity="0"
     inkscape:pageshadow="2"
     inkscape:window-width="640"
     inkscape:window-height="480"
     id="namedview3145"
     showgrid="false"
     inkscape:zoom="1.888"
     inkscape:cx="-83.625901"
     inkscape:cy="55.330099"
     inkscape:window-x="0"
     inkscape:window-y="31"
     inkscape:window-maximized="0"
     inkscape:current-layer="svg3125" /><g
     id="g3127"><path
       d="M92.913,7.087v61.004H7.086V7.087H92.913 M96.921,0H3.078C1.378,0,0,1.378,0,3.078V72.1c0,1.7,1.378,3.078,3.078,3.078   h93.843c1.701,0,3.078-1.378,3.078-3.078V3.078C99.999,1.378,98.622,0,96.921,0L96.921,0z"
       id="path3129" /></g><g
     id="g3131"><path
       d="M55.724,54.294V33.5c0-0.541-0.438-0.979-0.979-0.979H37.13c-0.54,0-0.978,0.438-0.978,0.979v4.167   c0,0.54,0.438,0.978,0.978,0.978h7.69v15.649h-7.69c-0.54,0-0.978,0.438-0.978,0.979v4.167c0,0.54,0.438,0.979,1.147,0.979h25.737   c0.371,0,0.81-0.438,0.81-0.979v-4.167c0-0.541-0.438-0.979-0.979-0.979H55.724z"
       id="path3133" /><circle
       fill-rule="evenodd"
       clip-rule="evenodd"
       cx="50.191"
       cy="22.118"
       r="6.771"
       id="circle3135" /></g><g
     id="g3137"><path
       d="M87.685,83.967c0,0.559-0.453,1.012-1.013,1.012H13.328c-0.559,0-1.012-0.453-1.012-1.012V80.32   c0-0.559,0.453-1.012,1.012-1.012h73.344c0.56,0,1.013,0.453,1.013,1.012V83.967z"
       id="path3139" /></g></svg>
